<?xml version="1.0" encoding="UTF-8"?><svg xmlns="http://www.w3.org/2000/svg" version="1.1" width="650" height="650" viewBox="0 0 650 650">
<path d="M0 0 C4.00436236 1.60745187 6.7181585 4.41310917 9.6875 7.4375 C10.21931885 7.97608643 10.7511377 8.51467285 11.29907227 9.06958008 C16.21650114 14.11425399 20.6759067 19.4384426 25 25 C25.48581543 25.61472168 25.97163086 26.22944336 26.47216797 26.86279297 C34.62957683 37.18948507 42.12501028 47.77829113 49 59 C49.44553223 59.72348633 49.89106445 60.44697266 50.35009766 61.19238281 C73.09314935 98.42911732 87.0608025 139.02343663 94 182 C94.12600586 182.76038574 94.25201172 183.52077148 94.38183594 184.30419922 C96.85117272 199.3437059 97.20668174 214.36203316 97.1875 229.5625 C97.18689575 230.44873047 97.1862915 231.33496094 97.18566895 232.24804688 C97.16158424 245.2655345 96.89731268 258.10033609 95 271 C94.87109375 271.91458984 94.7421875 272.82917969 94.609375 273.77148438 C88.77858178 314.29009835 76.21881778 353.32268089 56 389 C55.62665527 389.66 55.25331055 390.32 54.86865234 391 C49.53453705 400.33646646 43.58845307 409.22056127 37.39941406 418.00830078 C35.97249007 420.03915317 34.55994343 422.07950322 33.1484375 424.12109375 C32.24544851 425.41452132 31.34182877 426.70750882 30.4375 428 C30.01992432 428.60593994 29.60234863 429.21187988 29.17211914 429.83618164 C28.16501346 431.26101561 27.08868385 432.63648207 26 434 C25.34 434 24.68 434 24 434 C23.731875 434.639375 23.46375 435.27875 23.1875 435.9375 C22 438 22 438 19 439 C18.34 438.236875 17.68 437.47375 17 436.6875 C12.11639711 431.81769259 5.63586576 430.69123602 -1 430 C-1.08495428 423.86618187 -0.80767558 417.93418193 -0.12963867 411.84130859 C-0.03692184 410.9729538 0.05579498 410.104599 0.15132141 409.20993042 C0.45714647 406.35560518 0.76962241 403.50204896 1.08203125 400.6484375 C1.29950981 398.62811171 1.51651629 396.60773506 1.733078 394.58731079 C2.30488294 389.26247177 2.88209162 383.93823336 3.46075439 378.61413574 C4.03680582 373.30942481 4.6094044 368.00434241 5.18164062 362.69921875 C5.34897862 361.1485993 5.34897862 361.1485993 5.51969719 359.56665421 C6.39294187 351.46695822 7.25676384 343.366277 8.11560249 335.26504135 C8.66510878 330.09402487 9.22925129 324.92505975 9.81323338 319.75782585 C10.05642122 317.58782076 10.29227669 315.41717092 10.52482605 313.2460022 C10.79468378 310.72991091 11.07618109 308.21502021 11.37324524 305.70199585 C12.24180909 297.34065564 13.056546 287.45046303 8.10136414 280.23550415 C3.8542839 275.71731269 -1.35105759 274.21344323 -7.40093994 273.85955811 C-8.64928619 273.8493161 -8.64928619 273.8493161 -9.92285156 273.83886719 C-11.35023651 273.82445587 -11.35023651 273.82445587 -12.80645752 273.80975342 C-13.82423279 273.80550354 -14.84200806 273.80125366 -15.890625 273.796875 C-16.9498114 273.79117493 -18.0089978 273.78547485 -19.10028076 273.77960205 C-21.33946743 273.77016861 -23.57866788 273.76362466 -25.81787109 273.75976562 C-29.22388254 273.75007431 -32.62928665 273.71904039 -36.03515625 273.6875 C-38.21614227 273.68096782 -40.39713258 273.67571819 -42.578125 273.671875 C-43.58780334 273.6595282 -44.59748169 273.6471814 -45.63775635 273.63446045 C-55.60537227 273.66548497 -64.46977552 276.21855957 -72 283 C-77.75482204 290.52832065 -79.80906661 297.61177422 -79 307 C-77.9148588 313.04294229 -75.88167836 317.07152102 -70.93359375 320.78515625 C-63.71485684 325.32056469 -56.37889713 325.58275068 -48 326 C-48.73818888 336.83079652 -49.86686785 347.60690059 -51.03125 358.3984375 C-51.22934162 360.24637437 -51.42729646 362.0943259 -51.62512207 363.94229126 C-52.03743597 367.7899474 -52.45106696 371.63745882 -52.86572266 375.48486328 C-53.39578521 380.40364768 -53.9230097 385.3227312 -54.44931793 390.24191856 C-54.85672491 394.04763968 -55.26537483 397.8532265 -55.67442322 401.65877151 C-55.86930073 403.4727393 -56.06385484 405.28674187 -56.2580719 407.10078049 C-56.52954919 409.63421488 -56.80264087 412.16747022 -57.07617188 414.70068359 C-57.1551622 415.44055511 -57.23415253 416.18042664 -57.3155365 416.94271851 C-57.78933015 421.31152165 -58.35529457 425.65402163 -59 430 C-60.19496094 430.27263672 -60.19496094 430.27263672 -61.4140625 430.55078125 C-70.13902988 432.62057278 -78.02781792 434.94449187 -84 442 C-88.6847284 450.05114128 -90.63928669 458.13841428 -88.453125 467.2890625 C-86.35235092 473.52135893 -83.3692359 477.46091927 -77.52392578 480.6003418 C-71.98785113 483.29662926 -67.26747218 483.73269966 -61.1796875 483.70703125 C-60.19501495 483.72215256 -59.21034241 483.73727386 -58.1958313 483.75285339 C-55.08864891 483.79541986 -51.98244376 483.80453838 -48.875 483.8125 C-46.75257875 483.83566842 -44.63018032 483.86103858 -42.5078125 483.88867188 C-37.33845645 483.9512175 -32.16970056 483.98379504 -27 484 C-28.1053505 487.31605149 -28.67926479 487.77989232 -31.40234375 489.75 C-32.47645508 490.53056763 -32.47645508 490.53056763 -33.57226562 491.3269043 C-34.74305664 492.15508667 -34.74305664 492.15508667 -35.9375 493 C-36.74509766 493.57596924 -37.55269531 494.15193848 -38.38476562 494.74536133 C-46.67569372 500.58808577 -55.23931086 505.89633108 -64 511 C-64.7105957 511.41846191 -65.42119141 511.83692383 -66.15332031 512.26806641 C-101.01283394 532.69443436 -139.18124985 545.58927152 -179 552 C-180.50796143 552.2477417 -180.50796143 552.2477417 -182.04638672 552.50048828 C-212.82288098 557.3247499 -246.29165537 557.21299325 -277 552 C-278.05026367 551.82839355 -279.10052734 551.65678711 -280.18261719 551.47998047 C-319.69315369 544.89489105 -355.56092104 530.96013708 -390.75195312 512.18579102 C-392.82107915 511.09437648 -394.9032915 510.03724626 -397 509 C-397 506 -397 506 -394.859375 503.7890625 C-393.91578125 502.86867188 -392.9721875 501.94828125 -392 501 C-389.99746192 498.52140273 -388.12906156 495.94793942 -386.25 493.375 C-382.04271743 487.68632536 -377.72259021 482.14143065 -373.203125 476.6953125 C-370.34825039 473.20264676 -367.60783454 469.62696807 -364.8684082 466.04394531 C-361.7954383 462.02694489 -358.69059621 458.03671605 -355.5625 454.0625 C-355.10286865 453.47847412 -354.6432373 452.89444824 -354.16967773 452.29272461 C-352.78021766 450.5281419 -351.39014853 448.76404036 -350 447 C-343.97603763 439.3518218 -337.9731951 431.68791823 -332 424 C-325.59259384 415.75322189 -319.14755385 407.53681931 -312.68652344 399.33203125 C-302.91313288 386.91816138 -293.1905812 374.46449938 -283.5625 361.9375 C-282.77875 360.92042969 -281.995 359.90335937 -281.1875 358.85546875 C-279.75963672 356.99159722 -278.34242796 355.11950107 -276.9375 353.23828125 C-276.31875 352.41714844 -275.7 351.59601563 -275.0625 350.75 C-274.53785156 350.04359375 -274.01320313 349.3371875 -273.47265625 348.609375 C-272 347 -272 347 -269 346 C-268.98582031 346.79921875 -268.97164062 347.5984375 -268.95703125 348.421875 C-268.47774832 359.45833602 -265.7824499 369.25953458 -257.9375 377.375 C-252.26852112 382.12962745 -246.24868511 383.73570956 -238.91015625 383.45703125 C-231.48323623 382.29065589 -224.52650282 379.09852449 -219 374 C-217.40480428 371.59966814 -217.40480428 371.59966814 -216.25 369 C-215.84265625 368.154375 -215.4353125 367.30875 -215.015625 366.4375 C-213.28178331 362.27627994 -212.90099753 358.93365333 -213.04296875 354.421875 C-213.06423828 353.34292969 -213.08550781 352.26398438 -213.10742188 351.15234375 C-213.16044699 348.89942289 -213.22538815 346.6467483 -213.30273438 344.39453125 C-213.41526023 337.38458724 -212.78758303 332.95191619 -209 327 C-204.95169166 322.84227792 -200.5991359 321.17229906 -194.796875 320.89453125 C-189.30835178 321.14655528 -186.28298917 322.78662826 -182.3125 326.52734375 C-179.05243043 330.18521943 -179.73505984 334.35890525 -179.78515625 339.0234375 C-180.24192121 345.35170837 -183.84086229 349.52092862 -188 354 C-188.66 354 -189.32 354 -190 354 C-190.33 354.99 -190.66 355.98 -191 357 C-191.66 357 -192.32 357 -193 357 C-193 357.66 -193 358.32 -193 359 C-193.66 359 -194.32 359 -195 359 C-195.3602829 359.84874947 -195.3602829 359.84874947 -195.72784424 360.71464539 C-197.26506734 363.47617823 -199.10806927 365.34033266 -201.35449219 367.56567383 C-202.25592957 368.46373245 -203.15736694 369.36179108 -204.08612061 370.2870636 C-205.07301248 371.26041277 -206.05993129 372.23373464 -207.046875 373.20703125 C-208.06148439 374.21536308 -209.07557559 375.22421656 -210.08917236 376.23356628 C-212.7590475 378.89014933 -215.43442439 381.5411156 -218.1114502 384.19049072 C-222.38258095 388.41850607 -226.64712448 392.65313581 -230.90824127 396.89124107 C-232.38910871 398.36198887 -233.87340012 399.82921246 -235.35809326 401.2960968 C-239.23380831 405.14411963 -243.04652788 408.95792184 -246.53613281 413.1628418 C-247.34920898 414.099104 -248.16228516 415.03536621 -249 416 C-249.66 416 -250.32 416 -251 416 C-251.22655273 416.556875 -251.45310547 417.11375 -251.68652344 417.6875 C-253.38238875 420.67323164 -255.52201315 422.63901774 -258.015625 425 C-259.03055466 425.97984066 -260.04485673 426.96033174 -261.05859375 427.94140625 C-262.64264451 429.46413891 -264.23062217 430.98175958 -265.83056641 432.48779297 C-273.60128213 439.82666748 -281.43524054 447.79583704 -282.7265625 458.98828125 C-282.47199578 468.22840113 -282.47199578 468.22840113 -278 476 C-270.47232388 482.78037656 -262.86726624 483.29842207 -253.07885742 483.29052734 C-251.28506401 483.30060318 -251.28506401 483.30060318 -249.45503235 483.31088257 C-246.18625271 483.3265932 -242.91762584 483.33323573 -239.64881301 483.33451414 C-237.60273584 483.3359394 -235.556685 483.3402161 -233.5106144 483.34550858 C-226.36146997 483.36399214 -219.21239995 483.37218138 -212.06323242 483.37060547 C-205.4171149 483.36940484 -198.77132252 483.39049582 -192.12528723 483.4220928 C-186.40446304 483.44831412 -180.68374465 483.45897031 -174.96286088 483.45769465 C-171.55261524 483.45718669 -168.14265873 483.46277706 -164.73247337 483.48405075 C-160.92448503 483.50369696 -157.11732857 483.49787679 -153.30932617 483.48583984 C-152.19161835 483.49707886 -151.07391052 483.50831787 -149.92233276 483.51989746 C-141.70595945 483.45406817 -135.33407838 481.65659272 -128.6875 476.75 C-120.91100828 468.79265964 -119.56122164 458.05902537 -118.375 447.4375 C-118.2409375 446.33341797 -118.106875 445.22933594 -117.96875 444.09179688 C-115.57201272 427.80699289 -115.57201272 427.80699289 -121 413 C-125.8834205 407.50615194 -131.78000113 405.82220628 -139 405 C-148.66732754 405.35681024 -156.8651135 407.57677529 -163.8125 414.4375 C-168.12949884 419.63169724 -168.84432448 425.47383236 -170 432 C-177.59 432.33 -185.18 432.66 -193 433 C-193 430 -193 430 -191.3203125 428.28125 C-190.59585938 427.6934375 -189.87140625 427.105625 -189.125 426.5 C-186.51805546 424.36959371 -184.89331428 422.83997143 -183 420 C-182.34 420 -181.68 420 -181 420 C-180.74605469 419.41734375 -180.49210938 418.8346875 -180.23046875 418.234375 C-178.86679667 415.75811967 -177.35774797 414.19479374 -175.3125 412.25 C-172.64545329 409.7058833 -170.16528924 407.07296353 -167.75390625 404.2890625 C-163.14768989 398.97681083 -158.2862184 393.91429843 -153.43359375 388.828125 C-152.74652344 388.10367187 -152.05945313 387.37921875 -151.3515625 386.6328125 C-150.73104004 385.98199707 -150.11051758 385.33118164 -149.47119141 384.66064453 C-147.91823382 383.05177354 -147.91823382 383.05177354 -147 381 C-146.34 381 -145.68 381 -145 381 C-144.76539063 380.44183594 -144.53078125 379.88367188 -144.2890625 379.30859375 C-142.68606075 376.43776335 -140.66604632 374.42093003 -138.375 372.0625 C-123.87075914 356.300666 -119.04469846 339.38955821 -119.82080078 318.45410156 C-120.82563474 304.69307841 -128.91345155 292.03648255 -139 283 C-153.6390897 272.68034541 -169.46555311 268.82307339 -187.25 268.8125 C-188.31863281 268.80025391 -189.38726562 268.78800781 -190.48828125 268.77539062 C-197.53894637 268.76254008 -204.11435565 269.48464311 -211 271 C-209.24237075 267.3278541 -207.07042424 264.34316839 -204.5625 261.125 C-204.12220459 260.55837646 -203.68190918 259.99175293 -203.22827148 259.40795898 C-201.82289284 257.60210567 -200.41213716 255.80057186 -199 254 C-198.54882812 253.42362793 -198.09765625 252.84725586 -197.6328125 252.25341797 C-194.42971662 248.16275903 -191.21577984 244.08069015 -188 240 C-181.97603731 232.35182139 -175.97324974 224.68787614 -170 217 C-162.69883147 207.6041281 -155.39458173 198.21047788 -147.9375 188.9375 C-144.53588056 184.69930342 -141.21789967 180.39990296 -137.9128418 176.08642578 C-134.88580192 172.14000335 -131.82801131 168.21927132 -128.75 164.3125 C-124.47895172 158.89123034 -120.23366791 153.4505099 -116 148 C-109.59271498 139.75312847 -103.14755317 131.53681845 -96.68652344 123.33203125 C-91.10192914 116.23864574 -85.53899315 109.12907006 -80 102 C-73.59259384 93.75322189 -67.14755385 85.53681931 -60.68652344 77.33203125 C-55.08389834 70.21574357 -49.49958069 63.08553747 -43.9375 55.9375 C-43.33905273 55.16841309 -42.74060547 54.39932617 -42.12402344 53.60693359 C-39.51927755 50.25562725 -36.91874683 46.90157998 -34.34375 43.52734375 C-29.22808158 36.82548594 -23.99522045 30.24220614 -18.64038086 23.72998047 C-15.45488448 19.84406318 -12.39028032 15.89110207 -9.39257812 11.85864258 C-7.5226085 9.36283635 -5.5812914 6.92849967 -3.625 4.5 C-2.59246094 3.21609375 -2.59246094 3.21609375 -1.5390625 1.90625 C-1.03117187 1.2771875 -0.52328125 0.648125 0 0 Z " fill="#221E20" transform="translate(553,95)"/>
<path d="M0 0 C1.11280334 0.00465271 2.22560669 0.00930542 3.37213135 0.01409912 C19.61254068 0.09355631 35.54396068 0.46923802 51.5625 3.375 C52.67463867 3.56835938 53.78677734 3.76171875 54.93261719 3.9609375 C82.54280198 8.8694148 108.99669392 16.8723124 134.5625 28.375 C135.34367187 28.71885742 136.12484375 29.06271484 136.9296875 29.41699219 C148.6254807 34.57237472 159.60343965 40.81299268 170.5625 47.375 C169.21761087 50.25593609 167.68590842 52.67526158 165.7265625 55.17578125 C165.16267822 55.89838135 164.59879395 56.62098145 164.01782227 57.36547852 C163.11181274 58.51487915 163.11181274 58.51487915 162.1875 59.6875 C161.56480225 60.482771 160.94210449 61.27804199 160.30053711 62.09741211 C155.81503563 67.81498756 151.29348767 73.50387876 146.73486328 79.16333008 C142.95541532 83.85803866 139.25630747 88.61274842 135.5625 93.375 C134.46656218 94.7815745 133.3702156 96.18783061 132.2734375 97.59375 C126.39373383 105.13789971 120.54140315 112.70030506 114.75 120.3125 C110.51527195 125.87456858 106.18650173 131.33438701 101.7265625 136.71875 C98.91035611 140.17546542 96.20771613 143.71486952 93.50317383 147.25878906 C90.24816777 151.51221344 86.91917592 155.70148836 83.5625 159.875 C77.30679783 167.65903304 71.22267452 175.56465607 65.17578125 183.51171875 C60.52938995 189.59467548 55.78871172 195.57879098 50.9375 201.5 C46.65006489 206.73526188 42.5602148 212.04544115 38.6328125 217.55859375 C35.66252108 221.59931095 32.50502291 225.48080388 29.35546875 229.38232422 C24.21592898 235.76629286 19.24033429 242.27133385 14.27734375 248.79296875 C13.79894043 249.41993652 13.32053711 250.0469043 12.82763672 250.69287109 C11.7970096 252.06319545 10.80131217 253.45973523 9.81640625 254.86328125 C9.40261719 255.36214844 8.98882812 255.86101562 8.5625 256.375 C7.9025 256.375 7.2425 256.375 6.5625 256.375 C6.66272461 255.42286621 6.76294922 254.47073242 6.86621094 253.48974609 C6.93352417 252.85019485 7.0008374 252.21064362 7.07019043 251.55171204 C7.22450548 250.0858749 7.37888629 248.62004468 7.5333252 247.15422058 C7.97392288 242.97137873 8.41328693 238.78841269 8.85058594 234.60522461 C9.69235128 226.56440797 10.54022525 218.52462351 11.43328857 210.48931885 C11.80790142 207.11491975 12.17665363 203.73989049 12.54504395 200.36480713 C12.72076523 198.77004226 12.89930865 197.17558535 13.08093262 195.58148193 C15.39126763 175.28123055 17.16844399 153.68366595 4.0625 136.4375 C1.38989097 133.23497711 -1.37268486 130.209954 -4.4375 127.375 C-5.365625 126.446875 -6.29375 125.51875 -7.25 124.5625 C-22.17313424 111.95783957 -42.46359128 108.13901575 -61.4375 109.375 C-85.30254319 111.81555692 -107.02646829 122.57436627 -122.5859375 140.90625 C-133.77742414 155.95855517 -137.50597683 173.84780016 -139.578125 192.08203125 C-139.75111396 193.54212601 -139.92477472 195.00214132 -140.09906006 196.46208191 C-140.45889977 199.49745829 -140.81097648 202.53360096 -141.15722656 205.57055664 C-141.59532452 209.40797395 -142.05276711 213.24279502 -142.5154562 217.07731438 C-145.94135506 245.57824893 -148.82986856 271.348573 -131.3125 296.125 C-120.72361039 308.81748599 -104.77823964 317.39380812 -88.4375 319.375 C-68.73835398 320.77127063 -52.19234734 317.81629034 -34.4375 309.375 C-36.10044888 313.19978243 -38.59587434 316.27530547 -41.1875 319.5 C-42.18415121 320.7534632 -43.18021634 322.00739258 -44.17578125 323.26171875 C-44.70510254 323.9273584 -45.23442383 324.59299805 -45.77978516 325.27880859 C-48.67178259 328.93575851 -51.51994552 332.62669084 -54.375 336.3125 C-58.76772391 341.97424636 -63.19773548 347.60240469 -67.6875 353.1875 C-72.11301134 358.69393653 -76.45245491 364.25719487 -80.74609375 369.8671875 C-91.18530181 383.49868086 -101.7400813 397.0574015 -112.5 410.4375 C-115.97294849 414.76270579 -119.35478453 419.15496808 -122.72680664 423.55883789 C-125.88728804 427.67928142 -129.11839094 431.73675166 -132.375 435.78125 C-134.76423746 438.78589711 -137.10388194 441.82715339 -139.4375 444.875 C-143.02424901 449.55951158 -146.67483843 454.18588805 -150.375 458.78125 C-152.76423746 461.78589711 -155.10388194 464.82715339 -157.4375 467.875 C-161.02424901 472.55951158 -164.67483843 477.18588805 -168.375 481.78125 C-170.76423746 484.78589711 -173.10388194 487.82715339 -175.4375 490.875 C-178.39765847 494.74114636 -181.38356838 498.58221396 -184.4375 502.375 C-187.4252631 506.08725075 -190.35205791 509.84245263 -193.25 513.625 C-196.69987716 518.1276845 -200.17710561 522.60682712 -203.6875 527.0625 C-208.12305486 532.69369817 -212.53599624 538.34214357 -216.9375 544 C-217.83710449 545.15568481 -217.83710449 545.15568481 -218.75488281 546.3347168 C-219.32045898 547.06215088 -219.88603516 547.78958496 -220.46875 548.5390625 C-220.96955078 549.18311035 -221.47035156 549.8271582 -221.98632812 550.49072266 C-223.48724117 552.43958654 -224.96572419 554.40406694 -226.4375 556.375 C-230.44197304 554.7675037 -233.15537879 551.96170984 -236.125 548.9375 C-236.65609375 548.40036377 -237.1871875 547.86322754 -237.734375 547.30981445 C-242.65401077 542.2679287 -247.07479654 536.90303326 -251.4375 531.375 C-252.39251527 530.20798275 -253.34966501 529.04270997 -254.30859375 527.87890625 C-299.72307011 472.49717817 -324.89353577 400.62820879 -324.75317383 329.17358398 C-324.75002719 325.84129654 -324.77352293 322.50991214 -324.79882812 319.17773438 C-324.85914556 299.0658086 -322.91202048 279.28786323 -318.625 259.625 C-318.36493164 258.41021973 -318.10486328 257.19543945 -317.83691406 255.94384766 C-310.41804617 222.02199149 -297.78066549 190.40136829 -280.4375 160.375 C-280.01339844 159.63540039 -279.58929688 158.89580078 -279.15234375 158.13378906 C-277.92428035 155.9997003 -276.68401568 153.87335391 -275.4375 151.75 C-275.06367188 151.10385742 -274.68984375 150.45771484 -274.3046875 149.79199219 C-273.40562192 148.28439241 -272.42885861 146.82358004 -271.4375 145.375 C-270.7775 145.375 -270.1175 145.375 -269.4375 145.375 C-269.09138672 146.26251953 -269.09138672 146.26251953 -268.73828125 147.16796875 C-265.61161934 154.74363575 -262.10489399 159.05426246 -254.4375 162.375 C-251.76520681 162.87976649 -249.25008191 163.2780479 -246.5625 163.5625 C-244.18741841 163.83261688 -241.8124116 164.10339257 -239.4375 164.375 C-240.0967472 176.03345113 -241.23928753 187.60859097 -242.50390625 199.21484375 C-242.7045239 201.07667743 -242.90487198 202.93854018 -243.10496521 204.8004303 C-243.62670978 209.64863774 -244.15206111 214.49644745 -244.67822266 219.34417725 C-245.21674182 224.31189399 -245.75176876 229.27998677 -246.28710938 234.24804688 C-247.33386537 243.95739768 -248.38444064 253.66633097 -249.4375 263.375 C-250.24646729 263.55893311 -251.05543457 263.74286621 -251.88891602 263.93237305 C-252.95811279 264.18543213 -254.02730957 264.43849121 -255.12890625 264.69921875 C-256.18537354 264.94502686 -257.24184082 265.19083496 -258.33032227 265.4440918 C-265.52982347 267.60105715 -271.30221769 272.17207653 -275.4375 278.375 C-278.81712787 285.59946767 -279.791336 292.92397007 -277.25 300.5625 C-274.75534602 306.31851354 -271.93746171 309.98001003 -266.18383789 312.51586914 C-259.42219645 315.09646016 -252.70227737 314.9353579 -245.55859375 314.87109375 C-244.13712999 314.87124914 -242.71566581 314.87274464 -241.29420471 314.87550354 C-238.33144134 314.8768795 -235.36916679 314.86446455 -232.40649414 314.84155273 C-228.63188102 314.81314386 -224.85807683 314.81592307 -221.08340359 314.82864285 C-218.15348036 314.83563675 -215.22374023 314.82776918 -212.29384041 314.81538582 C-210.90295173 314.81090909 -209.51204315 314.810501 -208.12115288 314.81445122 C-196.84722621 314.83149164 -187.38361839 313.89549839 -178.84375 305.87890625 C-172.38325657 299.02254925 -170.82627242 291.51141609 -171.0859375 282.24609375 C-171.76126674 276.73090498 -173.85173777 273.00481119 -177.6875 269.0625 C-183.04927509 265.77231983 -188.25817163 264.37074861 -194.4375 263.375 C-193.83865985 251.16640599 -192.63081054 239.05921872 -191.29461479 226.9119873 C-190.92494469 223.54625297 -190.56074576 220.17996529 -190.19801331 216.81347656 C-189.1673327 207.25369303 -188.12967514 197.69468531 -187.08227539 188.13671875 C-186.43840169 182.25756954 -185.80294619 176.37755856 -185.17256355 170.49694824 C-184.93293642 168.2769556 -184.69019294 166.05729677 -184.44408989 163.8380127 C-180.93648891 141.63857679 -180.93648891 141.63857679 -185.4375 120.375 C-187.17933455 118.57997743 -187.17933455 118.57997743 -189.25 117.5 C-189.89582031 117.11070313 -190.54164063 116.72140625 -191.20703125 116.3203125 C-197.25228936 113.75822412 -203.86578833 114.24401409 -210.3046875 114.27734375 C-211.33941193 114.2787587 -212.37413635 114.28017365 -213.44021606 114.28163147 C-216.73100732 114.28720961 -220.02172946 114.29975812 -223.3125 114.3125 C-225.54947818 114.31751782 -227.78645743 114.32208024 -230.0234375 114.32617188 C-235.49481508 114.33717188 -240.9661526 114.35388823 -246.4375 114.375 C-244.72724534 110.71065049 -242.67752076 108.4404411 -239.75 105.625 C-236.71117294 102.65553276 -233.78551329 99.69839246 -231.0625 96.4375 C-226.32516529 90.92717361 -220.86389681 86.18596596 -215.4375 81.375 C-214.90237793 80.89514648 -214.36725586 80.41529297 -213.81591797 79.92089844 C-171.40428598 41.9876709 -118.42211111 17.11503716 -62.9375 5.625 C-62.0511084 5.43832764 -61.1647168 5.25165527 -60.25146484 5.05932617 C-40.28134019 1.15746027 -20.30807468 -0.15258303 0 0 Z " fill="#221E20" transform="translate(324.4375,-0.375)"/>
<path d="M0 0 C3.98107982 1.54462219 6.28742737 4.28931646 8.9375 7.5 C9.41203613 8.07041016 9.88657227 8.64082031 10.37548828 9.22851562 C40.15947502 45.56130361 60.68122913 87.51135481 72 133 C72.25265625 133.95390625 72.5053125 134.9078125 72.765625 135.890625 C74.6772319 143.49638013 75.90751697 151.19472547 77.125 158.9375 C77.38120117 160.54492065 77.38120117 160.54492065 77.64257812 162.18481445 C79.77030929 176.14963964 80.18655768 190.02357656 80.18530273 204.12158203 C80.18749103 206.86376444 80.20572701 209.60554439 80.22460938 212.34765625 C80.25921062 223.09007348 79.59689078 233.37534366 78 244 C77.73435481 246.07648887 77.47117149 248.15329479 77.2109375 250.23046875 C74.93136511 266.94179662 70.81550332 282.85449198 66 299 C65.51525016 300.66655768 65.03082642 302.33321029 64.546875 304 C62.28468089 311.64816357 59.47704746 318.82569208 56 326 C55.39002892 327.37243493 54.78576288 328.747421 54.1875 330.125 C53.46091889 331.75115772 52.73129446 333.37595645 52 335 C51.74412109 335.57427734 51.48824219 336.14855469 51.22460938 336.74023438 C43.0274691 355.0403963 33.00046625 371.93478529 21 388 C20.26652344 388.98226563 19.53304687 389.96453125 18.77734375 390.9765625 C18.19082031 391.64429688 17.60429688 392.31203125 17 393 C16.34 393 15.68 393 15 393 C15.21849609 391.09311401 15.21849609 391.09311401 15.44140625 389.14770508 C16.0148027 383.98342104 16.48377089 378.8126867 16.9375 373.63671875 C17.11184867 371.67902483 17.28633173 369.72134288 17.4609375 367.76367188 C17.73221527 364.71130374 18.00251435 361.65885953 18.27050781 358.60620117 C18.53165601 355.63694618 18.7967679 352.66806653 19.0625 349.69921875 C19.18129517 348.32886726 19.18129517 348.32886726 19.30249023 346.93083191 C19.37927002 346.07927017 19.4560498 345.22770844 19.53515625 344.3503418 C19.600979 343.60471481 19.66680176 342.85908783 19.73461914 342.09086609 C20.00042859 339.99662328 20.48425625 338.04484241 21 336 C21.3234828 333.04160273 21.61334549 330.08892366 21.875 327.125 C22.45396933 320.68211053 23.07326484 314.24878282 23.796875 307.8203125 C25.15005755 295.61069879 26.29181754 283.48001983 26.375 271.1875 C26.38869629 270.18686523 26.40239258 269.18623047 26.41650391 268.15527344 C26.34946852 257.53469413 23.42962209 249.68375403 16 242 C7.02709318 234.37397771 -4.48988426 233.54019098 -15.7890625 233.6015625 C-16.97293549 233.59869232 -18.15680847 233.59582214 -19.3765564 233.59286499 C-21.86237063 233.59083606 -24.34820126 233.59628329 -26.83398438 233.60888672 C-30.62145864 233.62498495 -34.40787053 233.60898216 -38.1953125 233.58984375 C-40.62239817 233.59182583 -43.04948318 233.59566877 -45.4765625 233.6015625 C-46.59866119 233.59548981 -47.72075989 233.58941711 -48.87686157 233.5831604 C-55.4749495 233.64174934 -60.9038332 234.45474798 -67 237 C-68.051875 237.42539062 -69.10375 237.85078125 -70.1875 238.2890625 C-83.00069217 244.37532878 -89.88190747 253.00674724 -95 266 C-97.77048768 278.55527367 -96.15656486 290.35543372 -89.7578125 301.421875 C-84.30520978 309.41902566 -76.04504041 313.98498653 -67 317 C-68.13011627 333.21670907 -69.74229214 349.3493545 -71.59082031 365.49707031 C-71.67534454 366.23703247 -71.75986877 366.97699463 -71.84695435 367.73937988 C-72.01212823 369.18245472 -72.17834214 370.62541095 -72.34567261 372.0682373 C-72.90763188 376.97374132 -73.34082392 381.87775244 -73.65405273 386.80517578 C-74.0367329 389.23304782 -74.71461174 390.91077857 -76 393 C-78.03125 394.16796875 -78.03125 394.16796875 -80.5 395.1875 C-88.73460919 399.03667332 -94.6665575 405.6329286 -101 412 C-101.02578125 410.81664062 -101.0515625 409.63328125 -101.078125 408.4140625 C-101.4994201 395.0556147 -103.34860835 384.95657399 -113 375 C-118.72616939 370.12530561 -124.73842179 367.72822529 -132 366 C-130.45116434 362.4679991 -128.31225795 359.85890387 -125.8125 356.9375 C-112.64510875 341.00580066 -104.35628452 323.52096103 -104.5625 302.625 C-104.57494751 300.98374146 -104.57494751 300.98374146 -104.58764648 299.30932617 C-104.9706885 280.94103019 -112.16794455 264.27381473 -125 251 C-128.17770002 248.08118609 -131.47586444 245.4866564 -135 243 C-136.11761719 242.20142578 -136.11761719 242.20142578 -137.2578125 241.38671875 C-149.07415234 233.63600092 -163.22998344 230.28498091 -177 228 C-175.65511087 225.11906391 -174.12340842 222.69973842 -172.1640625 220.19921875 C-171.60041992 219.47694092 -171.03677734 218.75466309 -170.45605469 218.01049805 C-169.85180664 217.24390869 -169.24755859 216.47731934 -168.625 215.6875 C-168.00012695 214.88932861 -167.37525391 214.09115723 -166.73144531 213.26879883 C-162.2778256 207.59116732 -157.77583272 201.95298072 -153.25585938 196.328125 C-149.33185219 191.43748489 -145.49917923 186.48256426 -141.6875 181.50390625 C-133.58991007 170.9310303 -125.38883894 160.44063842 -117.05175781 150.05566406 C-112.54590689 144.44236565 -108.12504339 138.76843888 -103.7421875 133.05859375 C-98.99284985 126.87158295 -94.21443894 120.71010233 -89.38769531 114.58325195 C-85.57241613 109.73715708 -81.78356102 104.87088562 -78 100 C-70.04277153 89.76096677 -62.05527107 79.54987915 -53.9375 69.4375 C-49.45036161 63.84502127 -45.04618802 58.19711465 -40.6875 52.50390625 C-33.18807937 42.71204908 -25.61698019 32.9763351 -17.875 23.375 C-11.71566223 15.73339654 -5.84344843 7.88451108 0 0 Z " fill="#FC6B0C" transform="translate(554,119)"/>
<path d="M0 0 C6 2 6 2 12 4 C12.28443644 13.0893244 11.40578581 21.76022705 10.125 30.75 C8.62046412 41.67962723 7.39635243 52.59340472 6.59619141 63.60058594 C6.52964355 64.5084082 6.4630957 65.41623047 6.39453125 66.3515625 C6.34143799 67.13354004 6.28834473 67.91551758 6.23364258 68.72119141 C5.97713647 71.22299706 5.66137813 73.57048966 5 76 C2.55859375 77.5546875 2.55859375 77.5546875 -0.5625 78.875 C-11.75419651 84.09248129 -18.56134318 91.78092764 -23.375 103.125 C-27.13806843 114.35122506 -25.71432029 125.99521073 -20.81640625 136.55078125 C-15.75674412 145.99643945 -8.33347665 151.59500246 1.64964294 155.1413269 C8.11086451 156.79729283 14.70233657 156.5287562 21.32421875 156.4609375 C22.88116808 156.45854673 24.43812033 156.45764909 25.99507141 156.4581604 C29.23851915 156.45505264 32.48151851 156.43864122 35.72485352 156.41162109 C39.86373436 156.37755875 44.00212675 156.36999627 48.1411314 156.37151146 C51.34892867 156.37096557 54.5566211 156.35996479 57.76438332 156.34550858 C59.29006981 156.33918671 60.81576804 156.3352126 62.3414669 156.33372116 C76.832261 156.30402089 90.67165838 153.97990181 101.9375 143.9375 C108.45667968 136.62611621 112.28740855 126.25472376 115 117 C117.9444848 119.64911328 119.89647548 122.76432473 122.0625 126.0625 C134.80382974 144.76891082 153.76761286 156.17783597 175.84912109 160.640625 C181.84616104 161.64262759 187.93159551 161.83860626 194 162 C194 162.66 194 163.32 194 164 C193.34 164 192.68 164 192 164 C191.65195312 164.80050781 191.65195312 164.80050781 191.296875 165.6171875 C189.60736379 168.72140991 187.45582227 171.38025524 185.25 174.125 C184.25467629 175.37718144 183.25991213 176.6298078 182.265625 177.8828125 C181.73646484 178.54829102 181.20730469 179.21376953 180.66210938 179.89941406 C177.7497146 183.58011979 174.87693755 187.29156166 172 191 C166.46607336 198.12373838 160.90691528 205.22697089 155.32666016 212.31445312 C153.04913797 215.20808823 150.77472459 218.10416552 148.5 221 C145.78661257 224.45427351 143.07274646 227.90816048 140.35546875 231.359375 C135.21573608 237.88985886 130.09879658 244.43749359 125 251 C118.59259384 259.24677811 112.14755385 267.46318069 105.68652344 275.66796875 C99.49717024 283.52950101 93.33869372 291.41427774 87.20092773 299.31616211 C83.119769 304.56784668 79.01647307 309.80149592 74.90014648 315.02563477 C71.9247823 318.80743166 68.98609209 322.61559424 66.0625 326.4375 C61.87536749 331.90807052 57.59538863 337.30023999 53.27001953 342.66210938 C49.86985459 346.88208569 46.58039202 351.16754996 43.40234375 355.55859375 C42.93957031 356.03425781 42.47679688 356.50992187 42 357 C39 357 39 357 37.265625 355.515625 C24.22349593 340.85586752 13.14555998 324.75969167 3 308 C2.26402588 306.80842285 2.26402588 306.80842285 1.51318359 305.59277344 C-2.0864553 299.71209536 -5.28098768 293.72167773 -8.25 287.5 C-8.71672119 286.52240723 -9.18344238 285.54481445 -9.66430664 284.53759766 C-29.75157366 241.66896681 -39.48807716 196.88745024 -39.3125 149.6875 C-39.31067719 148.66162781 -39.30885437 147.63575562 -39.30697632 146.57879639 C-39.26105358 131.18854732 -38.76992885 116.17668243 -36 101 C-35.81244141 99.94748047 -35.62488281 98.89496094 -35.43164062 97.81054688 C-32.6201231 82.31535484 -29.38512501 66.83230553 -24 52 C-23.5565625 50.77410156 -23.113125 49.54820312 -22.65625 48.28515625 C-19.75495113 40.35808949 -16.63022791 32.62530284 -13 25 C-12.18966061 23.26583219 -11.37981432 21.53143394 -10.5703125 19.796875 C-9.67247956 17.88513262 -8.77403494 15.97367741 -7.875 14.0625 C-7.4428418 13.13735596 -7.01068359 12.21221191 -6.56542969 11.2590332 C-6.14938477 10.38077881 -5.73333984 9.50252441 -5.3046875 8.59765625 C-4.93327637 7.80883057 -4.56186523 7.02000488 -4.17919922 6.20727539 C-2.97257133 3.94865784 -1.58744396 2.0050269 0 0 Z " fill="#98CAEB" transform="translate(55,174)"/>
<path d="M0 0 C3.00297459 0.01068156 6.00534461 0.00005609 9.00830078 -0.01269531 C26.96120971 -0.02709491 44.75419183 1.0877449 62.39501953 4.57324219 C63.53052246 4.79270508 64.66602539 5.01216797 65.8359375 5.23828125 C69.15202601 5.89149976 72.46191993 6.56828929 75.77001953 7.26074219 C76.67494141 7.45007324 77.57986328 7.6394043 78.51220703 7.83447266 C104.08904827 13.34824939 130.1212724 23.13884901 152.77001953 36.26074219 C151.48851098 39.00629758 150.09442888 41.26660528 148.15283203 43.58886719 C147.63462891 44.21535156 147.11642578 44.84183594 146.58251953 45.48730469 C146.02564453 46.15503906 145.46876953 46.82277344 144.89501953 47.51074219 C140.37535339 52.99460377 135.99350362 58.54574304 131.77001953 64.26074219 C127.17058942 70.47332564 122.38277667 76.49864449 117.48266602 82.47607422 C112.92113099 88.04771709 108.52538501 93.72705269 104.15673828 99.45166016 C95.02940967 111.35896737 85.73841598 123.14176737 76.45654297 134.92871094 C70.27009183 142.78655709 64.11407964 150.6673131 57.97973633 158.56591797 C53.8122524 163.92927861 49.6211191 169.27339186 45.41308594 174.60498047 C42.93958835 177.74618213 40.51858686 180.91848979 38.14501953 184.13574219 C37.36126953 185.16699219 36.57751953 186.19824219 35.77001953 187.26074219 C35.44001953 187.26074219 35.11001953 187.26074219 34.77001953 187.26074219 C34.91402834 185.59391688 35.06033797 183.92729033 35.20751953 182.26074219 C35.32933594 180.86855469 35.32933594 180.86855469 35.45361328 179.44824219 C35.67987788 177.16883585 35.96678587 174.89512506 36.29345703 172.62792969 C36.97815523 167.22478173 36.95412434 161.8248455 36.95751953 156.38574219 C36.96976563 155.3609375 36.98201172 154.33613281 36.99462891 153.28027344 C37.03188019 133.73576741 29.55573534 116.85771259 16.19580078 102.66699219 C-1.85043889 84.76605236 -24.51865114 77.26160369 -49.60498047 76.94824219 C-71.89231872 77.12160515 -92.26066669 84.09980006 -110.22998047 97.26074219 C-111.21482422 97.98132813 -112.19966797 98.70191406 -113.21435547 99.44433594 C-131.73575351 113.79586122 -144.43920178 136.37421722 -147.54516602 159.61962891 C-147.79799197 162.04006925 -148.02033079 164.46119129 -148.22998047 166.88574219 C-149.2180349 177.4651782 -150.5258506 187.95719269 -152.22998047 198.44824219 C-154.5890742 213.62445935 -155.57095634 228.92975993 -156.22998047 244.26074219 C-156.73787109 243.87402344 -157.24576172 243.48730469 -157.76904297 243.08886719 C-158.45740234 242.56808594 -159.14576172 242.04730469 -159.85498047 241.51074219 C-160.57943359 240.95 -161.30388672 240.38925781 -162.05029297 239.81152344 C-164.34338758 238.07215385 -164.34338758 238.07215385 -167.72998047 236.69824219 C-170.22998047 234.26074219 -170.22998047 234.26074219 -170.51806641 231.57446289 C-170.39839633 224.30450564 -169.92551447 217.21745433 -168.97998047 210.01074219 C-167.42531688 197.40645807 -166.17760623 184.78351437 -164.97485352 172.1416626 C-164.03998738 162.32668853 -163.05649951 152.5276687 -161.88085938 142.73828125 C-160.83794557 134.01642233 -159.94865612 125.36314082 -159.85498047 116.57324219 C-159.84112305 115.8367041 -159.82726562 115.10016602 -159.81298828 114.34130859 C-159.8906235 105.58691649 -163.60728861 97.88386796 -169.22998047 91.26074219 C-171.73932336 89.20532514 -174.3122827 87.66574955 -177.22998047 86.26074219 C-178.28443359 85.74640625 -179.33888672 85.23207031 -180.42529297 84.70214844 C-184.58108017 82.94497742 -188.7052335 82.49002447 -193.16748047 82.07324219 C-193.94671875 81.99138672 -194.72595703 81.90953125 -195.52880859 81.82519531 C-197.42818843 81.62710048 -199.32896809 81.44250378 -201.22998047 81.26074219 C-196.16842158 74.56162013 -189.80698181 69.76184215 -183.16845703 64.73876953 C-181.27348274 63.2939113 -179.40268995 61.82224289 -177.53466797 60.34277344 C-156.80764745 44.11167762 -132.14355985 29.87746889 -107.22998047 21.26074219 C-104.45409983 20.23243293 -101.68643817 19.1825238 -98.91748047 18.13574219 C-96.99534469 17.41557016 -95.07256608 16.69725314 -93.1484375 15.98242188 C-91.84858862 15.49344843 -90.55273638 14.99374043 -89.26074219 14.484375 C-84.5640409 12.65258106 -79.89909179 11.34686833 -74.97998047 10.26074219 C-73.47589336 9.91908953 -71.9719874 9.5766384 -70.46826172 9.23339844 C-69.74203613 9.06855957 -69.01581055 8.9037207 -68.26757812 8.73388672 C-65.5546115 8.10391676 -62.86205717 7.40229711 -60.16748047 6.69824219 C-40.25046757 1.71221447 -20.48037524 -0.08623316 0 0 Z " fill="#98CAEB" transform="translate(318.22998046875,15.7392578125)"/>
<path d="M0 0 C0.66 0 1.32 0 2 0 C3.26171875 1.5390625 3.26171875 1.5390625 4.6875 3.625 C9.78984455 10.60520501 14.75018929 14.39479662 23 17 C21.71388026 19.83700637 20.38825583 21.84623759 18.14599609 24.00170898 C17.57134613 24.56006943 16.99669617 25.11842987 16.40463257 25.69371033 C15.47344101 26.58589012 15.47344101 26.58589012 14.5234375 27.49609375 C13.19876776 28.79055427 11.87456458 30.08549238 10.55078125 31.38085938 C8.47622075 33.40013398 6.39810703 35.41528675 4.31103516 37.42163086 C-9.38469821 50.61781882 -20.02746773 63.06451121 -20.5625 82.875 C-20.59497559 91.13149165 -18.43334578 96.99393543 -14 104 C-13.31731862 105.32520503 -12.64406078 106.65560128 -12 108 C-11.34 108 -10.68 108 -10 108 C-10 108.66 -10 109.32 -10 110 C-9.42894531 110.2784375 -8.85789062 110.556875 -8.26953125 110.84375 C-5.27803818 112.36781532 -2.40417321 114.07797341 0.48828125 115.78125 C7.72897914 119.29462129 14.45804395 119.29164828 22.38598633 119.2746582 C24.23611076 119.2823246 24.23611076 119.2823246 26.12361145 119.29014587 C29.49161108 119.30163138 32.85936388 119.3041206 36.22736573 119.30158257 C39.04763102 119.30050879 41.86787391 119.30540676 44.68813437 119.310188 C51.34752673 119.32126481 58.00686267 119.32173134 64.66625977 119.31567383 C71.51511202 119.3096393 78.36375856 119.32193588 85.21257573 119.3432439 C91.11092676 119.36091382 97.00921264 119.36685267 102.90758914 119.36360615 C106.42230909 119.36180122 109.93688238 119.36434959 113.45157814 119.37832069 C117.37640945 119.39333951 121.30098304 119.38388191 125.22583008 119.37231445 C126.37577454 119.37995819 127.52571899 119.38760193 128.71051025 119.39547729 C139.4658612 119.32566567 150.3556956 116.9723634 158.625 109.6875 C159.40875 108.800625 160.1925 107.91375 161 107 C161.48210937 106.49726562 161.96421875 105.99453125 162.4609375 105.4765625 C166.75327293 100.83561099 169.39462124 95.72952763 172 90 C174.85351473 93.58136776 176.68759621 97.3362203 178.62109375 101.46484375 C181.4992089 106.7563359 184.91471939 109.91287506 189.9375 113.1875 C191.46697266 114.19876953 191.46697266 114.19876953 193.02734375 115.23046875 C195.64957973 116.79140554 198.1352931 117.97123785 201 119 C197.2216998 122.25293655 193.27233396 124.58076854 188.8125 126.75 C188.12124023 127.08999023 187.42998047 127.42998047 186.71777344 127.78027344 C175.726474 133.13576564 164.64558576 138.43621099 152.953125 142.078125 C150.84638345 142.73578506 148.75360132 143.43887277 146.671875 144.171875 C129.3121169 150.2590629 111.1355864 154.04249345 93 157 C92.26716797 157.12004395 91.53433594 157.24008789 90.77929688 157.36376953 C44.96398421 164.38250807 -7.81082056 159.23210139 -51.11279297 142.71777344 C-53.11966422 141.95448735 -55.1378979 141.22927697 -57.16015625 140.5078125 C-69.88260546 135.92119121 -81.94916014 130.12312944 -94 124 C-94 119.82118977 -91.72211026 117.78121546 -89.1875 114.6875 C-88.17038221 113.42072602 -87.15346047 112.1537946 -86.13671875 110.88671875 C-85.61384277 110.24009277 -85.0909668 109.5934668 -84.55224609 108.92724609 C-82.1732801 105.97355664 -79.83750254 102.9865271 -77.5 100 C-76.58489504 98.83443153 -75.66952946 97.66906765 -74.75390625 96.50390625 C-74.30031738 95.92656738 -73.84672852 95.34922852 -73.37939453 94.75439453 C-71.99236972 92.99029536 -70.60379554 91.227426 -69.21484375 89.46484375 C-64.79723395 83.85575921 -60.40077381 78.23322504 -56.0625 72.5625 C-52.43646277 67.82454559 -48.73783749 63.15018563 -45 58.5 C-40.49008845 52.88776075 -36.06436233 47.22058916 -31.6875 41.50390625 C-28.51708159 37.36434857 -25.32338138 33.24297575 -22.125 29.125 C-21.53501221 28.36509766 -20.94502441 27.60519531 -20.3371582 26.82226562 C-15.89507035 21.11560637 -11.39227964 15.45995319 -6.81884766 9.85791016 C-4.78100962 7.34007662 -2.93069361 4.8815289 -1.29296875 2.08203125 C-0.86628906 1.39496094 -0.43960938 0.70789063 0 0 Z " fill="#FA6A0D" transform="translate(275,475)"/>
<path d="M0 0 C6.80610919 7.37328496 6.36640769 14.40756294 6 24 C5.70620553 28.49652579 5.27175843 32.96893865 4.79296875 37.44921875 C4.6669075 38.66849564 4.54084625 39.88777252 4.41096497 41.14399719 C4.14471584 43.69802336 3.87479544 46.25166931 3.60131836 48.80493164 C3.18753744 52.68714875 2.79134878 56.57089672 2.39648438 60.45507812 C2.13387069 62.95323647 1.87023368 65.45128749 1.60546875 67.94921875 C1.43183052 69.66838753 1.43183052 69.66838753 1.25468445 71.42228699 C-0.00544352 82.93247185 -1.85636412 93.85636412 -10.3125 102.3125 C-16.40705344 106.13931263 -21.81495232 107.68429026 -29 107 C-34.466287 105.33231922 -38.10914856 102.94820921 -41 98 C-47.90610781 83.94687364 -42.17471118 62.79913276 -40.58081055 47.89868164 C-40.31772416 45.41626319 -40.0609283 42.93317033 -39.81030273 40.44946289 C-39.44322332 36.81238748 -39.0576517 33.17768383 -38.66796875 29.54296875 C-38.56050827 28.4468779 -38.45304779 27.35078705 -38.34233093 26.22148132 C-37.27368694 16.60996201 -35.30206311 6.80419517 -28 0 C-18.90707397 -5.72928266 -8.71650719 -7.2975409 0 0 Z " fill="#231F20" transform="translate(278,163)"/>
<path d="M0 0 C1.41454468 0.07359741 1.41454468 0.07359741 2.85766602 0.14868164 C3.12726315 12.49850284 2.43822123 24.64549824 1.31347656 36.94311523 C1.04433592 39.90782551 0.79313973 42.87370302 0.54321289 45.84008789 C-1.761211 72.24709297 -1.761211 72.24709297 -6.07128906 77.49926758 C-8.14233398 79.14868164 -8.14233398 79.14868164 -10.89233398 78.89868164 C-12.00608398 78.52743164 -12.00608398 78.52743164 -13.14233398 78.14868164 C-13.75162772 61.69775089 -11.93485622 45.4735869 -10.14233398 29.14868164 C-10.01955078 27.97724609 -9.89676758 26.80581055 -9.77026367 25.59887695 C-9.43431889 22.42544817 -9.0747915 19.25580365 -8.70483398 16.08618164 C-8.60710693 15.15974854 -8.50937988 14.23331543 -8.40869141 13.27880859 C-6.79098035 0.32131979 -6.79098035 0.32131979 0 0 Z " fill="#97C9E9" transform="translate(264.142333984375,174.851318359375)"/>
<path d="M0 0 C0.33 1.32 0.66 2.64 1 4 C1.99 4.33 2.98 4.66 4 5 C2.69593116 7.01920337 1.36176581 9.01924973 0 11 C-0.33 11 -0.66 11 -1 11 C-0.67 7.37 -0.34 3.74 0 0 Z " fill="#87B1C8" transform="translate(354,192)"/>
<path d="M0 0 C2.50037734 2.17424117 3.43628586 3.73045798 4 7 C3.01 6.34 2.02 5.68 1 5 C0.34 5.99 -0.32 6.98 -1 8 C-0.67 5.36 -0.34 2.72 0 0 Z " fill="#A3DAF2" transform="translate(170,291)"/>
<path d="M0 0 C0.33 0 0.66 0 1 0 C1.08333357 4.8333472 0.95261487 9.23692563 0 14 C-0.33 14 -0.66 14 -1 14 C-2.12029814 8.51053913 -1.79217969 5.16569441 0 0 Z " fill="#6E8DA3" transform="translate(262,229)"/>
</svg>