<svg width="512" height="512" viewBox="0 0 512 512" fill="none" xmlns="http://www.w3.org/2000/svg">
<path d="M132.331 145.991C133.04 148.293 133.586 150.255 134.254 152.148C134.867 153.878 134.99 155.595 134.745 157.393C134.567 158.646 134.213 159.954 134.431 161.153C135.699 168.046 134.527 174.79 133.477 181.56C132.618 187.078 131.881 192.609 131.09 198.126C130.981 198.875 130.9 199.652 130.668 200.36C129.059 205.455 127.982 210.687 127.286 215.959C126.55 221.517 124.695 226.803 123.209 232.156C121.859 237.02 121.109 242.101 118.914 246.733C118.696 247.183 118.518 247.7 118.491 248.191C118.123 254.853 115.3 260.956 114.128 267.44C113.91 268.68 113.582 269.906 113.337 271.146C111.278 281.581 109.274 292.03 107.296 302.492C105.565 311.702 103.069 320.788 102.306 330.175C99.3742 340.991 98.8152 352.176 97.1653 363.197C96.6062 366.957 96.4153 370.758 96.0471 374.545C95.9244 375.798 95.829 377.079 95.5835 378.318C94.7381 382.569 94.4927 386.86 94.4791 391.192C94.4518 396.764 94.779 402.336 93.6882 407.894C93.1564 410.578 93.2382 413.548 93.7564 416.245C94.4791 420.046 94.4245 423.82 94.52 427.62C94.5745 429.65 94.8609 431.666 94.9699 433.696C95.1472 437.211 96.6607 440.126 99.2788 442.306C102.592 445.058 106.042 447.687 109.642 450.058C111.278 451.147 113.351 451.842 115.314 452.142C120.605 452.973 125.841 454.076 130.886 455.725C137.24 457.809 143.853 458.109 150.317 459.376C153.534 460.016 156.902 460.098 160.189 460.043C165.302 459.962 170.361 460.629 175.324 461.446C182.892 462.7 190.419 463.299 198.082 463.286C201.6 463.286 205.118 464.089 208.636 464.498C210.395 464.702 212.167 464.907 213.94 464.92C217.008 464.92 220.008 465.247 223.035 465.738C226.035 466.215 229.103 466.187 232.13 466.501C238.688 467.168 245.329 466.937 251.792 468.53C252.774 468.776 253.783 468.898 254.792 468.98C261.623 469.511 268.455 469.988 275.286 470.533C278.068 470.751 280.849 471.051 283.604 471.405C289.931 472.209 296.285 472.059 302.639 472.072C308.243 472.072 313.834 472.004 319.438 472.1C323.242 472.154 327.046 471.977 330.837 472.74C332.801 473.135 334.887 472.931 336.919 472.931C341.241 472.958 345.563 472.944 349.9 472.931C351.427 472.931 353.008 473.108 354.467 472.754C357.999 471.882 361.558 472.018 365.103 472.113C369.439 472.236 373.734 471.786 378.03 471.35C381.834 470.969 385.488 469.906 388.884 468.421C390.492 466.814 391.011 464.825 391.447 462.85C393.37 454.158 394.829 445.426 394.229 436.448C393.997 432.906 394.174 429.337 394.174 425.768C394.174 425.005 394.079 424.228 394.215 423.479C395.851 414.651 394.869 405.742 395.129 396.873C395.197 394.584 395.074 392.296 395.169 390.007C395.238 388.495 395.415 386.955 395.824 385.525C396.179 384.285 396.478 383.127 396.274 381.82C395.824 379.041 396.274 376.275 396.588 373.51C397.038 369.477 397.678 365.458 397.406 361.371C397.351 360.608 397.283 359.805 397.488 359.096C398.715 354.601 398.224 350.01 398.36 345.446C398.442 342.653 398.633 339.874 398.837 337.081C399.342 330.27 400.037 323.486 400.337 316.674C400.556 311.851 401.305 307.097 401.796 302.315C402.614 294.25 403.678 286.213 404.646 278.162C404.701 277.658 404.646 277.058 404.905 276.677C406.582 274.17 406.16 271.418 406.201 268.612C406.31 261.759 407.741 255.084 409.746 248.545C409.814 248.313 409.923 248.055 410.087 247.878C412.268 245.575 412.282 242.701 411.655 239.99C411.164 237.892 411.246 236.203 412.009 234.159C413.141 231.094 413.509 227.756 414.396 224.582C414.9 222.743 414.723 221.19 413.918 219.46C413.414 218.384 413.387 216.994 413.468 215.768C414.109 206.668 414.573 197.554 416.495 188.604C416.918 186.628 417.041 184.571 417.164 182.555C417.314 180.28 417.695 178.059 418.091 175.825C418.704 172.365 418.923 168.727 418.527 165.24C418.036 160.853 418.527 156.617 419.195 152.366C419.563 150.077 419.727 147.898 419.263 145.595C418.813 143.375 418.623 141.073 418.541 138.798C418.35 133.471 418.282 128.144 418.159 122.831C418.159 122.327 418.132 121.81 418.077 121.306C417.873 119.426 417.027 117.886 415.35 116.973C413.796 116.115 412.2 115.298 410.537 114.698C403.364 112.124 396.465 108.868 389.456 105.911C389.224 105.816 389.006 105.666 388.761 105.598C379.243 102.792 370.285 98.4324 360.767 95.6396C358.34 94.9312 355.858 94.291 353.527 93.3237C346.941 90.5855 340.027 88.8281 333.292 86.5667C327.755 84.7139 322.015 83.5832 316.561 81.4989C314.924 80.8722 313.125 80.5862 311.379 80.3682C305.08 79.5508 298.835 78.5154 292.917 76.036C291.54 75.4639 289.971 75.314 288.472 75.0416C283.208 74.1016 278.04 72.8619 272.968 71.1862C270.077 70.2326 267.132 69.388 264.146 68.8158C257.124 67.4671 250.578 64.6199 243.733 62.7127C233.711 59.9063 223.662 57.2226 213.463 55.0838C210.981 54.5661 208.513 53.9122 206.045 53.3264C205.063 53.0948 204.068 52.6997 203.072 52.6997C194.864 52.6316 187.023 50.3157 179.06 48.7626C175.324 48.027 171.588 47.2096 167.852 46.6374C164.102 46.0653 160.311 45.6566 156.548 45.0572C156.043 44.9754 155.525 44.8664 155.034 44.9209C148.53 45.7656 141.794 44.9346 135.508 47.5229C134.349 47.9998 132.999 48.4493 131.813 48.3131C126.468 47.6456 121.914 50.0705 117.196 51.8278C116.01 52.2638 114.878 53.122 113.678 53.2038C109.042 53.558 104.774 55.1655 100.424 56.5823C98.9924 57.0455 98.2016 56.7185 97.7652 54.9067C97.3425 53.1901 96.4289 52.2365 94.8199 51.8551C93.3337 51.5009 91.8338 51.2693 90.3475 50.9287C88.5203 50.52 87.1841 49.0351 87.0204 47.2641C86.925 46.256 86.9113 45.2479 86.8568 44.2398C86.8023 43.1363 87.2113 42.2372 88.1385 41.665C89.6521 40.7387 91.1247 39.6897 92.7474 39.0494C94.7109 38.2865 95.4063 37.0059 95.5154 35.017C95.5699 33.9407 96.5517 33.1915 97.6425 33.2732C100.056 33.4503 102.129 32.6329 104.174 31.5295C107.528 29.7176 110.91 27.9466 114.264 26.1483C117.864 24.2139 121.518 22.4565 125.718 22.293C125.963 22.293 126.236 22.2521 126.468 22.1704C135.686 18.7919 144.958 19.9498 154.284 21.6664C158.048 22.3611 161.702 23.4237 165.329 24.5544C168.724 25.617 172.147 26.2982 175.719 26.7478C180.465 27.3335 185.128 28.764 189.75 30.1127C193.664 31.257 197.577 32.2787 201.627 32.81C202.636 32.9463 203.659 33.0552 204.627 33.3277C212.672 35.6436 220.989 36.9514 228.953 39.6079C232.075 40.6569 235.348 41.2155 238.552 42.0328C249.119 44.7711 259.387 48.5447 270.077 50.8334C276.009 52.1139 281.79 54.1846 287.967 54.2255C288.935 54.2255 289.903 54.7704 290.871 55.0565C295.507 56.4188 300.13 57.6858 304.93 58.4214C309.702 59.1434 314.243 60.9553 318.715 62.7263C325.315 65.3419 332.105 67.508 338.541 70.5596C340.137 71.3088 341.896 71.7312 343.614 72.208C347.772 73.3659 351.945 74.4694 356.104 75.6001C356.349 75.6682 356.608 75.7227 356.826 75.8589C362.717 79.5917 369.739 80.3409 376.012 83.0792C378.111 83.9919 380.225 84.8502 382.352 85.7084C384.697 86.662 387.056 87.602 389.415 88.5284C390.602 88.9916 391.938 89.1959 392.961 89.8771C399.587 94.2501 407.264 96.3208 414.327 99.7266C417.75 101.375 421.363 102.656 425.154 103.323C427.772 103.786 429.913 105.053 431.454 107.247C431.89 107.873 432.258 108.595 432.831 109.058C436.526 112.096 438.271 116.238 439.88 120.597C441.039 123.758 441.748 126.918 441.83 130.229C441.967 136.059 441.83 141.89 442.676 147.693C442.962 149.682 442.853 151.767 442.648 153.783C441.912 160.853 441.448 167.937 441.148 175.035C440.876 181.356 440.03 187.65 439.444 193.957C437.358 199.243 438.68 205.101 436.717 210.414C436.253 220.046 433.84 229.459 433.608 239.118C433.553 241.379 432.967 243.627 432.776 245.902C432.381 250.452 432.122 255.002 431.754 259.552C431.14 267.127 430.513 274.701 429.831 282.262C429.49 286.049 428.631 289.823 428.631 293.597C428.645 300.98 427.922 308.282 426.995 315.598C426.545 319.113 426.64 322.723 425.904 326.169C425.209 329.452 425.29 332.722 425.045 336.005C424.418 344.601 424.772 353.238 423.695 361.835C423.095 366.603 423.15 371.452 422.89 376.275C422.809 377.787 422.631 379.299 422.522 380.825C422.345 383.1 422.154 385.375 422.031 387.65C421.772 392.977 421.991 398.358 421.227 403.603C420.204 410.66 419.768 417.716 419.686 424.814C418.568 429.31 418.65 433.887 418.8 438.451C418.895 441.216 419.632 443.982 419.591 446.747C419.55 449.254 418.786 451.747 418.459 454.253C418.323 455.248 418.418 456.283 418.527 457.278C419.25 463.422 418.459 469.416 417.095 475.41C416.073 479.865 413.687 483.107 409.855 485.682C404.128 489.524 397.76 490.763 391.106 491.295C378.411 492.303 365.703 491.921 352.995 491.962C340.532 491.989 328.055 491.935 315.593 491.962C306.17 491.989 296.83 491.036 287.49 490.082C280.168 489.333 272.832 488.802 265.591 487.412C264.855 487.276 264.064 487.262 263.314 487.276C260.001 487.317 256.742 486.867 253.456 486.554C248.915 486.131 244.32 485.982 239.766 485.845C233.889 485.682 228.121 484.728 222.353 483.993C217.049 483.312 211.69 483.598 206.44 482.562C200.318 482.903 194.277 481.84 188.251 481.091C181.433 480.246 174.588 480.056 167.756 479.565C163.461 479.252 159.22 478.23 154.871 478.407C153.63 478.462 152.335 478.108 151.135 477.726C146.744 476.35 142.19 475.914 137.676 475.219C130.6 474.143 123.727 472.168 117.25 469.28C109.86 465.983 102.579 462.359 95.9381 457.605C93.47 455.834 90.9475 454.145 87.9476 453.286C86.175 452.782 84.7706 451.488 84.2115 449.717C83.2434 446.706 81.4299 444.295 79.2209 442.17C75.1984 438.301 74.0667 432.947 71.7896 428.179C71.3532 424.923 70.8896 421.667 70.5078 418.398C70.276 416.381 70.4396 414.297 69.9897 412.335C68.8852 407.567 68.9534 402.772 69.0488 397.936C69.0897 395.892 69.0352 393.89 69.6215 391.901C69.9079 390.947 69.8124 389.884 69.9079 388.876C70.1942 386.111 69.826 383.373 69.5942 380.634C70.8896 377.978 70.2897 375.158 70.3851 372.379C70.4806 369.6 70.3851 366.821 71.1214 364.055C71.6396 362.121 71.6532 360.036 71.7896 358.006C72.0214 354.723 72.485 351.481 72.9622 348.211C73.4258 344.956 73.4258 341.645 74.4212 338.457C74.5712 337.981 74.6257 337.449 74.6121 336.945C74.4758 331.578 75.553 326.333 76.3711 321.074C77.4892 313.813 78.9755 306.62 80.5981 299.441C81.3753 295.981 82.2344 292.534 82.9843 289.06C83.2434 287.834 83.407 286.553 83.407 285.3C83.407 282.984 84.1024 280.777 84.3206 278.529C84.9887 271.677 87.2795 265.138 88.1795 258.381C89.3794 249.281 91.7792 240.48 93.9609 231.625C94.0836 231.135 94.3154 230.658 94.3563 230.154C94.9563 220.972 98.1607 212.308 99.6333 203.316C101.433 192.309 104.61 181.547 105.51 170.376C105.565 169.627 105.647 168.836 105.919 168.142C108.605 161.317 108.155 154.164 108.046 147.067C108.019 145.582 107.624 144.056 107.16 142.639C106.574 140.896 106.533 139.165 106.792 137.394C106.928 136.427 107.869 135.487 108.81 135.446C109.819 135.392 110.855 135.228 111.851 135.351C114.864 135.732 117.864 136.223 120.864 136.686C123.073 138.375 125.323 140.024 127.477 141.767C129.25 143.198 130.913 144.751 132.386 146.031L132.331 145.991Z" fill="#252934"/>
<path d="M288.404 280.301C273.882 285.546 259.688 292.726 247.361 301.935C235.744 310.613 222.476 320.939 217.69 335.23C209.85 346.605 198.232 367.435 218.317 372.952C226.731 375.99 236.903 380.445 246.12 377.379C270.201 375.404 293.449 365.486 316.07 355.187C317.611 352.449 321.388 352.858 323.652 350.433C325.861 348.662 326.461 347.163 327.688 351.278C325.302 361.236 326.856 375.39 318.116 383.292C316.07 385.948 311.816 387.624 315.743 390.553C312.457 392.406 308.68 395.185 305.394 397.119C301.385 401.383 294.049 400.62 292.917 407.255C286.072 409.87 278.655 412.786 271.155 413.385C229.226 427.281 187.324 395.771 184.133 350.814C185.251 336.17 187.706 322.383 192.833 308.665C198.655 302.834 202.35 295.532 207.041 289.088C208.732 288.312 211.036 285.424 208.5 283.993C199.623 280.165 194.074 272.019 186.819 265.725C183.479 259.635 183.042 253.886 181.706 247.225C176.975 220.523 206.659 196.015 227.385 184.15C238.416 174.055 287.627 139.548 300.458 145.16C300.403 145.242 300.349 145.324 300.281 145.406C303.689 148.13 306.471 144.316 309.321 146.373C313.48 152.313 313.766 162.162 310.971 169.096C310.575 175.431 302.135 174.028 298.044 177.202C290.068 180.117 282.091 185.417 274.809 189.871C260.342 197.378 246.052 208.671 233.317 218.78C224.017 226.722 193.651 244.445 215.577 251.475C227.317 254.908 239.684 254.418 251.547 251.938C261.624 249.827 272.178 242.988 281.545 250.331C286.113 253.913 288.595 259.322 292.808 263.095C295.944 265.902 301.903 271.869 297.526 276.364C296.326 277.59 294.608 278.163 292.972 278.694C291.431 279.212 289.89 279.743 288.363 280.288L288.404 280.301Z" fill="#252934"/>
</svg>
