<?xml version="1.0" encoding="UTF-8"?>
<svg version="1.1" xmlns="http://www.w3.org/2000/svg" width="300" height="300" viewBox="0 0 300 300">
<path d="M0 0 C70.95 0 141.9 0 215 0 C213.35530259 4.11174353 211.65780682 7.41095413 209.3671875 11.15625 C208.83389328 12.03162415 208.83389328 12.03162415 208.28982544 12.92468262 C207.15510078 14.78531759 206.01513802 16.64267839 204.875 18.5 C204.13246851 19.71593584 203.39027825 20.93208012 202.6484375 22.1484375 C202.09931198 23.04680328 202.09931198 23.04680328 201.53909302 23.96331787 C200.79547799 25.18184583 200.05418744 26.40179518 199.31515503 27.62310791 C197.55166003 30.52548544 195.75353074 33.35968189 193.83251953 36.16308594 C187.83469882 45.09864346 185.46450608 53.90546263 183.125 64.25 C182.56465406 66.6507261 181.99778667 69.04962526 181.42208862 71.44671631 C181.06916803 72.9233867 180.72593294 74.40241384 180.39358521 75.8838501 C179.99066534 77.60483075 179.5030249 79.30557243 179 81 C178.01 81.495 178.01 81.495 177 82 C176.68334167 74.07332689 177.87572443 66.33391005 178.9375 58.5 C179.12222636 57.11074103 179.30647461 55.7214184 179.49023438 54.33203125 C179.83876444 51.70021114 180.1898385 49.06877731 180.54248047 46.4375 C181.04959538 42.62737301 181.53293136 38.81521335 182 35 C180.98164063 35.67804688 179.96328125 36.35609375 178.9140625 37.0546875 C165.27550043 46.05793194 151.38633988 54.16426415 136.5 60.9375 C135.69973389 61.30311035 134.89946777 61.6687207 134.07495117 62.04541016 C130.01146891 63.84663046 125.97227611 65.36725709 121.70507812 66.61938477 C120.37675964 67.01118675 120.37675964 67.01118675 119.02160645 67.41090393 C118.35447632 67.60530563 117.68734619 67.79970734 117 68 C117.00888245 69.12086502 117.01776489 70.24173004 117.0269165 71.39656067 C117.10791722 81.94704538 117.16792445 92.49746721 117.20724869 103.04819202 C117.22814521 108.47277066 117.25650068 113.89709877 117.30175781 119.3215332 C117.34514169 124.55404315 117.36912154 129.78631177 117.37950897 135.01898766 C117.38691375 137.01775603 117.40137316 139.01651083 117.42292023 141.01517677 C117.45185508 143.80964579 117.45596017 146.60311096 117.45410156 149.39770508 C117.46848267 150.22848572 117.48286377 151.05926636 117.49768066 151.91522217 C117.45727293 157.51047162 117.45727293 157.51047162 115.09661865 160.03764343 C113 161 113 161 111 161 C111 130.97 111 100.94 111 70 C109.35 70 107.7 70 106 70 C106 100.03 106 130.06 106 161 C102.47107553 159.58843021 99.45137797 158.22615467 96.1875 156.375 C95.39730469 155.92898437 94.60710937 155.48296875 93.79296875 155.0234375 C93.20128906 154.68570313 92.60960937 154.34796875 92 154 C92 153.34 92 152.68 92 152 C91.01 152 90.02 152 89 152 C89 151.34 89 150.68 89 150 C88.43152344 149.73832031 87.86304688 149.47664062 87.27734375 149.20703125 C84.81761666 147.9033337 82.75515421 146.40134237 80.5625 144.6875 C79.82128906 144.11386719 79.08007812 143.54023438 78.31640625 142.94921875 C75.7183258 140.76297568 73.38077643 138.42212132 71 136 C69.77768321 134.79780786 68.55357951 133.59743104 67.328125 132.3984375 C47.19476939 112.58430816 47.19476939 112.58430816 45 106 C44.34 106 43.68 106 43 106 C33.25216331 95.6672931 33.27913126 77.30310783 31.41015625 63.921875 C31.27480469 62.95765625 31.13945313 61.9934375 31 61 C30.89558594 60.22140625 30.79117188 59.4428125 30.68359375 58.640625 C28.59392924 46.58656028 20.64313461 35.46801245 14.33447266 25.18066406 C11.70386773 20.88198803 9.10206872 16.56598531 6.5 12.25 C5.97124268 11.37972168 5.44248535 10.50944336 4.89770508 9.61279297 C4.4055249 8.79697754 3.91334473 7.98116211 3.40625 7.140625 C2.96603516 6.41391602 2.52582031 5.68720703 2.07226562 4.93847656 C1 3 1 3 0 0 Z " fill="#EBD6B4" transform="translate(41,74)"/>
<path d="M0 0 C-0.11583111 1.54238266 -0.24316572 3.08390272 -0.375 4.625 C-0.44460937 5.48351562 -0.51421875 6.34203125 -0.5859375 7.2265625 C-1.04775283 10.31985384 -2.00498769 13.03740694 -3 16 C-3.45150544 18.285058 -3.86467264 20.57785611 -4.25 22.875 C-5.56917523 30.29862929 -7.26553735 37.61601797 -9.0625 44.9375 C-9.31999023 46.0104834 -9.57748047 47.0834668 -9.84277344 48.18896484 C-10.21644043 49.6867749 -10.21644043 49.6867749 -10.59765625 51.21484375 C-10.93035522 52.56243774 -10.93035522 52.56243774 -11.26977539 53.93725586 C-12 56 -12 56 -14 57 C-14.31665833 49.07332689 -13.12427557 41.33391005 -12.0625 33.5 C-11.87777364 32.11074103 -11.69352539 30.7214184 -11.50976562 29.33203125 C-11.16123556 26.70021114 -10.8101615 24.06877731 -10.45751953 21.4375 C-9.95040462 17.62737301 -9.46706864 13.81521335 -9 10 C-10.01835937 10.67804688 -11.03671875 11.35609375 -12.0859375 12.0546875 C-25.72449957 21.05793194 -39.61366012 29.16426415 -54.5 35.9375 C-55.30026611 36.30311035 -56.10053223 36.6687207 -56.92504883 37.04541016 C-60.98853109 38.84663046 -65.02772389 40.36725709 -69.29492188 41.61938477 C-70.18046753 41.88058609 -71.06601318 42.14178741 -71.97839355 42.41090393 C-72.64552368 42.60530563 -73.31265381 42.79970734 -74 43 C-73.99111755 44.12086502 -73.98223511 45.24173004 -73.9730835 46.39656067 C-73.89208278 56.94704538 -73.83207555 67.49746721 -73.79275131 78.04819202 C-73.77185479 83.47277066 -73.74349932 88.89709877 -73.69824219 94.3215332 C-73.65485831 99.55404315 -73.63087846 104.78631177 -73.62049103 110.01898766 C-73.61308625 112.01775603 -73.59862684 114.01651083 -73.57707977 116.01517677 C-73.54814492 118.80964579 -73.54403983 121.60311096 -73.54589844 124.39770508 C-73.53151733 125.22848572 -73.51713623 126.05926636 -73.50231934 126.91522217 C-73.54272707 132.51047162 -73.54272707 132.51047162 -75.90338135 135.03764343 C-78 136 -78 136 -80 136 C-80 105.97 -80 75.94 -80 45 C-81.65 45 -83.3 45 -85 45 C-85 75.03 -85 105.06 -85 136 C-88.52892447 134.58843021 -91.54862203 133.22615467 -94.8125 131.375 C-95.60269531 130.92898437 -96.39289063 130.48296875 -97.20703125 130.0234375 C-97.79871094 129.68570313 -98.39039063 129.34796875 -99 129 C-99 128.34 -99 127.68 -99 127 C-99.99 127 -100.98 127 -102 127 C-102 126.34 -102 125.68 -102 125 C-102.56847656 124.73832031 -103.13695312 124.47664063 -103.72265625 124.20703125 C-106.18238334 122.9033337 -108.24484579 121.40134237 -110.4375 119.6875 C-111.17871094 119.11386719 -111.91992188 118.54023438 -112.68359375 117.94921875 C-115.2816742 115.76297568 -117.61922357 113.42212132 -120 111 C-121.22231679 109.79780786 -122.44642049 108.59743104 -123.671875 107.3984375 C-143.80523061 87.58430816 -143.80523061 87.58430816 -146 81 C-146.66 81 -147.32 81 -148 81 C-157.71379161 70.70338089 -157.77434119 52.31420108 -159.56640625 38.9609375 C-160.35791287 33.55587425 -161.67054854 28.29427574 -163 23 C-162.67 23 -162.34 23 -162 23 C-162.06058594 22.40574219 -162.12117188 21.81148437 -162.18359375 21.19921875 C-162.83017878 14.80300071 -163.42784346 8.40328386 -164 2 C-162.23849609 2.85271484 -162.23849609 2.85271484 -160.44140625 3.72265625 C-151.65320238 7.94720641 -142.85329778 12.02348592 -133.78540039 15.61547852 C-130.42972161 16.9538076 -127.19231313 18.38187508 -123.98046875 20.0390625 C-120.22788983 21.95121917 -116.51509955 23.28458491 -112.5 24.5625 C-104.57916217 27.11390501 -104.57916217 27.11390501 -100.75 28.625 C-74.06818795 38.40833109 -49.34818926 22.23950939 -25.0625 11.1875 C-24.11125244 10.75614746 -23.16000488 10.32479492 -22.17993164 9.88037109 C-16.39559078 7.21789177 -10.8301648 4.30676969 -5.31030273 1.13012695 C-3 0 -3 0 0 0 Z " fill="#DEBD88" transform="translate(232,99)"/>
<path d="M0 0 C0.66 0 1.32 0 2 0 C2.35191406 1.11375 2.70382813 2.2275 3.06640625 3.375 C10.8109777 27.50149874 21.79034713 49.44209394 37.6640625 69.32177734 C38.8482625 70.80938531 40.00442481 72.31921737 41.15625 73.83203125 C55.35342215 92.04263475 72.97686804 106.61922708 92.35791016 118.95019531 C93.81709112 119.8830645 95.25947999 120.84208358 96.69921875 121.8046875 C97.45847656 122.28164063 98.21773438 122.75859375 99 123.25 C99.61875 123.64703125 100.2375 124.0440625 100.875 124.453125 C105.90454446 125.74749306 110.44441543 122.86677882 114.6796875 120.41796875 C116.41867473 119.35283907 118.15014375 118.2753643 119.875 117.1875 C120.79539062 116.6114502 121.71578125 116.03540039 122.6640625 115.44189453 C131.52934714 109.80772451 139.8336781 103.59472246 148 97 C148.55526367 96.56042969 149.11052734 96.12085938 149.68261719 95.66796875 C161.05832144 86.64561768 173.94322147 76.0851678 182 64 C182.66 64 183.32 64 184 64 C181.10471381 80.25220647 163.03652842 98.5211197 152.35791016 110.47900391 C151.1186519 111.86709792 149.89258596 113.26694102 148.66796875 114.66796875 C139.56736175 124.98199002 129.96467026 134.66088343 119 143 C118.45102051 143.42007324 117.90204102 143.84014648 117.33642578 144.27294922 C115.6136135 145.57775818 113.87371262 146.85516942 112.125 148.125 C111.07570313 148.89070312 110.02640625 149.65640625 108.9453125 150.4453125 C106 152 106 152 103.51171875 151.9765625 C88.42836143 146.11211564 73.90267601 132.66136738 63 121 C62.195625 120.195625 61.39125 119.39125 60.5625 118.5625 C59.716875 117.716875 58.87125 116.87125 58 116 C57.39027344 115.43667969 56.78054687 114.87335938 56.15234375 114.29296875 C43.06256686 101.86837108 33.17318202 86.42496848 24 71 C23.62536621 70.37480469 23.25073242 69.74960938 22.86474609 69.10546875 C11.25229905 49.44441341 -0.45520445 23.21542695 0 0 Z " fill="#95092B" transform="translate(45,138)"/>
<path d="M0 0 C3.61041189 0.01607442 7.21969977 0.00004144 10.83007812 -0.01904297 C32.79701874 -0.03999668 54.41437379 2.12181393 75.99414062 6.20361328 C76.677948 6.33083771 77.36175537 6.45806213 78.06628418 6.58914185 C120.46018071 14.49913333 120.46018071 14.49913333 138.24414062 23.39111328 C138.24414062 24.05111328 138.24414062 24.71111328 138.24414062 25.39111328 C133.23730777 24.88484509 128.28917481 24.2649215 123.33081055 23.38867188 C61.14064151 12.60800642 -7.92911864 14.13706741 -69.54394531 28.01928711 C-70.63884277 28.20334106 -70.63884277 28.20334106 -71.75585938 28.39111328 C-72.75585938 27.39111328 -72.75585938 27.39111328 -72.86938477 25.53344727 C-72.86414795 24.74268799 -72.85891113 23.95192871 -72.85351562 23.13720703 C-72.85029297 22.28320312 -72.84707031 21.42919922 -72.84375 20.54931641 C-72.83537109 19.65148437 -72.82699219 18.75365234 -72.81835938 17.82861328 C-72.81384766 16.92691406 -72.80933594 16.02521484 -72.8046875 15.09619141 C-72.79286162 12.86110014 -72.77638158 10.62613891 -72.75585938 8.39111328 C-69.4484198 7.59757267 -66.13414636 6.83644541 -62.81835938 6.07861328 C-61.93083984 5.86527344 -61.04332031 5.65193359 -60.12890625 5.43212891 C-40.32364413 0.96427516 -20.24184439 -0.10662236 0 0 Z " fill="#95082B" transform="translate(114.755859375,28.60888671875)"/>
<path d="M0 0 C0.33 0 0.66 0 1 0 C1.16435547 1.12535156 1.16435547 1.12535156 1.33203125 2.2734375 C2.38286056 9.05683972 3.83798802 15.48513722 6 22 C7.14926266 21.04578192 8.29430541 20.08647955 9.4375 19.125 C10.07558594 18.59132813 10.71367187 18.05765625 11.37109375 17.5078125 C13.10805004 16.0777243 13.10805004 16.0777243 14 14 C14.66 14 15.32 14 16 14 C16.24492187 13.44828125 16.48984375 12.8965625 16.7421875 12.328125 C18.25738114 9.52360509 20.11084126 7.21896877 22.125 4.75 C22.84945312 3.85796875 23.57390625 2.9659375 24.3203125 2.046875 C24.87460938 1.37140625 25.42890625 0.6959375 26 0 C27 2 27 2 25.8125 5.8125 C25.5340625 6.60140625 25.255625 7.3903125 24.96875 8.203125 C23.83808008 11.46747847 22.82234758 14.75885576 21.8125 18.0625 C21.29623047 19.75052734 21.29623047 19.75052734 20.76953125 21.47265625 C20.51558594 22.30667969 20.26164062 23.14070313 20 24 C28.75308332 19.31007634 37.3138006 14.31761354 45 8 C45.99 8.495 45.99 8.495 47 9 C46.31292969 9.72445312 45.62585938 10.44890625 44.91796875 11.1953125 C44.00745088 12.17153785 43.0973149 13.14811947 42.1875 14.125 C41.29417969 15.07632813 40.40085937 16.02765625 39.48046875 17.0078125 C37.08749102 19.89445965 35.5231105 22.58944691 34 26 C46.35966637 23.41870866 46.35966637 23.41870866 58.0625 18.81640625 C61.3135351 17.44651444 64.500867 17.2544824 68 17 C65.42209571 20.00979861 62.51358235 21.36888623 58.953125 23.0390625 C58.35333328 23.32149811 57.75354156 23.60393372 57.13557434 23.89492798 C55.17734764 24.81298281 53.2142083 25.71982062 51.25 26.625 C50.58193329 26.93514038 49.91386658 27.24528076 49.22555542 27.56481934 C5.92153145 47.64187456 5.92153145 47.64187456 -11 42.6875 C-11.76828125 42.47416016 -12.5365625 42.26082031 -13.328125 42.04101562 C-18.06608461 40.69134176 -22.48649976 38.99337654 -27 37 C-29.53804323 36.05022911 -32.0785105 35.11369577 -34.625 34.1875 C-41.9339449 31.48433043 -48.96656224 28.35838319 -56 25 C-57.28569214 24.40069728 -58.57218349 23.8031068 -59.859375 23.20703125 C-66.28702804 20.22994632 -72.6892911 17.21974944 -79 14 C-78.85795259 15.58367747 -78.71119847 17.16693318 -78.5625 18.75 C-78.44068359 20.07257813 -78.44068359 20.07257813 -78.31640625 21.421875 C-78.06474284 23.93309873 -78.06474284 23.93309873 -77.46875 26.0625 C-76.67077263 29.36080645 -76.94365107 32.61906441 -77 36 C-79.18851368 31.85193556 -80.37417661 27.62650977 -81.625 23.125 C-81.85445313 22.33480469 -82.08390625 21.54460937 -82.3203125 20.73046875 C-83.5388489 16.37129985 -84.27940344 12.57339322 -84 8 C-83.34 8 -82.68 8 -82 8 C-82 8.66 -82 9.32 -82 10 C-81.319375 10.12375 -80.63875 10.2475 -79.9375 10.375 C-70.64864865 12.35135135 -70.64864865 12.35135135 -68 15 C-65.91495405 15.79615283 -65.91495405 15.79615283 -63.5 16.4375 C-62.60410156 16.6953125 -61.70820312 16.953125 -60.78515625 17.21875 C-59.00140083 17.71910215 -57.21755501 18.21913223 -55.43359375 18.71875 C-50.44522157 20.15515138 -45.82414191 21.89606132 -41.1171875 24.08203125 C-38.13788832 25.37379381 -35.14324208 26.19747011 -32 27 C-38.0530205 18.61863547 -38.0530205 18.61863547 -45 11 C-41.46610019 11 -40.37863543 11.81329331 -37.4375 13.6875 C-32.43583877 16.78867729 -27.30074349 19.45113186 -22 22 C-22 22.66 -22 23.32 -22 24 C-21.01 24 -20.02 24 -19 24 C-19.26554687 23.07058594 -19.53109375 22.14117187 -19.8046875 21.18359375 C-22.40234375 12.09179688 -22.40234375 12.09179688 -25 3 C-21.73539027 4.80412643 -20.11070205 5.83394693 -18 9 C-18 9.99 -18 10.98 -18 12 C-17.443125 12.226875 -16.88625 12.45375 -16.3125 12.6875 C-13.3530491 14.36718835 -11.33873216 16.54133285 -9 19 C-8.00236127 20.0023557 -7.00290274 21.00291119 -6 22 C-3.42756933 14.73225897 -1.2794114 7.60913098 0 0 Z " fill="#FDFAF8" transform="translate(148,88)"/>
<path d="M0 0 C-0.11583111 1.54238266 -0.24316572 3.08390272 -0.375 4.625 C-0.44460937 5.48351562 -0.51421875 6.34203125 -0.5859375 7.2265625 C-1.04775283 10.31985384 -2.00498769 13.03740694 -3 16 C-3.45150544 18.285058 -3.86467264 20.57785611 -4.25 22.875 C-5.56917523 30.29862929 -7.26553735 37.61601797 -9.0625 44.9375 C-9.31999023 46.0104834 -9.57748047 47.0834668 -9.84277344 48.18896484 C-10.21644043 49.6867749 -10.21644043 49.6867749 -10.59765625 51.21484375 C-10.93035522 52.56243774 -10.93035522 52.56243774 -11.26977539 53.93725586 C-12 56 -12 56 -14 57 C-14.31665833 49.07332689 -13.12427557 41.33391005 -12.0625 33.5 C-11.87777364 32.11074103 -11.69352539 30.7214184 -11.50976562 29.33203125 C-11.16123556 26.70021114 -10.8101615 24.06877731 -10.45751953 21.4375 C-9.95040462 17.62737301 -9.46706864 13.81521335 -9 10 C-10.01835937 10.67804688 -11.03671875 11.35609375 -12.0859375 12.0546875 C-25.72449957 21.05793194 -39.61366012 29.16426415 -54.5 35.9375 C-55.30026611 36.30311035 -56.10053223 36.6687207 -56.92504883 37.04541016 C-60.98853109 38.84663046 -65.02772389 40.36725709 -69.29492188 41.61938477 C-70.18046753 41.88058609 -71.06601318 42.14178741 -71.97839355 42.41090393 C-72.64552368 42.60530563 -73.31265381 42.79970734 -74 43 C-73.99111755 44.12086502 -73.98223511 45.24173004 -73.9730835 46.39656067 C-73.89208278 56.94704538 -73.83207555 67.49746721 -73.79275131 78.04819202 C-73.77185479 83.47277066 -73.74349932 88.89709877 -73.69824219 94.3215332 C-73.65485831 99.55404315 -73.63087846 104.78631177 -73.62049103 110.01898766 C-73.61308625 112.01775603 -73.59862684 114.01651083 -73.57707977 116.01517677 C-73.54814492 118.80964579 -73.54403983 121.60311096 -73.54589844 124.39770508 C-73.53151733 125.22848572 -73.51713623 126.05926636 -73.50231934 126.91522217 C-73.54272707 132.51047162 -73.54272707 132.51047162 -75.90338135 135.03764343 C-78 136 -78 136 -80 136 C-80 105.97 -80 75.94 -80 45 C-81.65 45 -83.3 45 -85 45 C-85 44.34 -85 43.68 -85 43 C-86.01707031 42.87625 -87.03414063 42.7525 -88.08203125 42.625 C-115.56723772 38.2405204 -141.60723455 20.85128452 -163 4 C-162.34 3.67 -161.68 3.34 -161 3 C-158.5837983 4.09688854 -156.27541057 5.2534837 -153.9375 6.5 C-147.39797 9.88942703 -140.78726873 12.85979661 -133.93725586 15.56445312 C-130.52615069 16.9203997 -127.23208688 18.35878049 -123.96875 20.04296875 C-120.22033622 21.95469638 -116.51144454 23.28574822 -112.5 24.5625 C-104.57916217 27.11390501 -104.57916217 27.11390501 -100.75 28.625 C-74.06818795 38.40833109 -49.34818926 22.23950939 -25.0625 11.1875 C-24.11125244 10.75614746 -23.16000488 10.32479492 -22.17993164 9.88037109 C-16.39559078 7.21789177 -10.8301648 4.30676969 -5.31030273 1.13012695 C-3 0 -3 0 0 0 Z " fill="#971031" transform="translate(232,99)"/>
<path d="M0 0 C1.2065625 0.0309375 1.2065625 0.0309375 2.4375 0.0625 C2.53008084 11.74516239 2.60120445 23.42773785 2.64474869 35.11069202 C2.66564521 40.53527066 2.69400068 45.95959877 2.73925781 51.3840332 C2.78264169 56.61654315 2.80662154 61.84881177 2.81700897 67.08148766 C2.82441375 69.08025603 2.83887316 71.07901083 2.86042023 73.07767677 C2.88935508 75.87214579 2.89346017 78.66561096 2.89160156 81.46020508 C2.90598267 82.29098572 2.92036377 83.12176636 2.93518066 83.97772217 C2.89477293 89.57297162 2.89477293 89.57297162 0.53411865 92.10014343 C-1.5625 93.0625 -1.5625 93.0625 -3.5625 93.0625 C-3.5856219 81.08446441 -3.6034143 69.10643409 -3.61431217 57.12838078 C-3.61954134 51.56710589 -3.62663958 46.00584621 -3.63793945 40.44458008 C-3.64876715 35.08242581 -3.65477658 29.72028622 -3.65737724 24.35812187 C-3.65923171 22.30749722 -3.66285272 20.2568734 -3.66823006 18.20625496 C-3.67543893 15.34459797 -3.67649101 12.48300243 -3.67602539 9.62133789 C-3.67962067 8.76466522 -3.68321594 7.90799255 -3.68692017 7.02536011 C-3.6746254 0.08962501 -3.6746254 0.08962501 0 0 Z " fill="#DEBE89" transform="translate(155.5625,141.9375)"/>
<path d="M0 0 C4.41749163 1.35514029 8.34627505 3.11041946 12.4375 5.25 C18.11098885 8.16628646 23.86790877 10.63622145 29.81420898 12.93823242 C32.97367583 14.16753421 36.01833352 15.44904411 39 17.0625 C44.95142144 20.21090822 51.60496814 21.96824508 58 24 C57.37609375 24.11214844 56.7521875 24.22429687 56.109375 24.33984375 C53.71418298 24.85026199 53.71418298 24.85026199 52.25 27.5625 C51.63125 28.7690625 51.63125 28.7690625 51 30 C52.98 30.33 54.96 30.66 57 31 C57 31.66 57 32.32 57 33 C58.32 33 59.64 33 61 33 C61 33.66 61 34.32 61 35 C39.13595059 29.95445014 17.08482914 15.09203838 0 1 C0 0.67 0 0.34 0 0 Z " fill="#9A213A" transform="translate(69,102)"/>
<path d="M0 0 C0.33 0.99 0.66 1.98 1 3 C2.32 2.67 3.64 2.34 5 2 C6.54092115 5.96317632 5.43395034 9.40449461 4.41796875 13.35546875 C4.24372879 14.05771072 4.06948883 14.7599527 3.88996887 15.48347473 C3.52034329 16.96303679 3.14602564 18.44143356 2.76733398 19.91870117 C2.18767387 22.18681966 1.62706047 24.45906097 1.06835938 26.73242188 C0.70685693 28.16955498 0.34426429 29.6064144 -0.01953125 31.04296875 C-0.18733597 31.72522018 -0.35514069 32.40747162 -0.5280304 33.11039734 C-0.9564555 34.75771759 -1.47079352 36.3822384 -2 38 C-2.99 38.495 -2.99 38.495 -4 39 C-4.08202061 33.70967084 -3.82601614 28.69512105 -3.125 23.4375 C-3.03621582 22.76074219 -2.94743164 22.08398438 -2.85595703 21.38671875 C-2.57546386 19.25713964 -2.28786964 17.12859316 -2 15 C-1.80681797 13.54303148 -1.61410553 12.08600061 -1.421875 10.62890625 C-0.95333361 7.08520169 -0.4784256 3.54238529 0 0 Z " fill="#950B2D" transform="translate(222,117)"/>
<path d="M0 0 C0.66 0 1.32 0 2 0 C2 0.66 2 1.32 2 2 C2.680625 2.12375 3.36125 2.2475 4.0625 2.375 C13.35135135 4.35135135 13.35135135 4.35135135 16 7 C17.96690374 7.67292501 17.96690374 7.67292501 20.125 8.125 C22.043125 8.558125 22.043125 8.558125 24 9 C23.01 9.66 22.02 10.32 21 11 C21 11.66 21 12.32 21 13 C15.04675579 11.60668753 10.24258516 9.11464243 5 6 C5.14204741 7.58367747 5.28880153 9.16693318 5.4375 10.75 C5.51871094 11.63171875 5.59992188 12.5134375 5.68359375 13.421875 C5.93525716 15.93309873 5.93525716 15.93309873 6.53125 18.0625 C7.32922737 21.36080645 7.05634893 24.61906441 7 28 C4.81148632 23.85193556 3.62582339 19.62650977 2.375 15.125 C2.14554687 14.33480469 1.91609375 13.54460937 1.6796875 12.73046875 C0.4611511 8.37129985 -0.27940344 4.57339322 0 0 Z " fill="#F9EFE6" transform="translate(64,96)"/>
<path d="M0 0 C4.47485135 1.37219762 8.47260264 3.15993539 12.625 5.3125 C18.95154295 8.55058144 25.39308094 11.37417319 32 14 C32 14.33 32 14.66 32 15 C30.33388095 15.042721 28.66617115 15.04063832 27 15 C26.67 14.67 26.34 14.34 26 14 C25.67 14.66 25.34 15.32 25 16 C25.66 16 26.32 16 27 16 C27.33 16.99 27.66 17.98 28 19 C17.72268031 15.19426623 8.45972605 7.87998663 0 1 C0 0.67 0 0.34 0 0 Z " fill="#9F3745" transform="translate(69,102)"/>
<path d="M0 0 C11.02446483 1.81957187 11.02446483 1.81957187 15 5 C15 5.66 15 6.32 15 7 C15.66 7.33 16.32 7.66 17 8 C16.34 8 15.68 8 15 8 C14.67 8.99 14.34 9.98 14 11 C11 10 11 10 10 9 C9.21625 8.87625 8.4325 8.7525 7.625 8.625 C4.76807161 7.94477896 3.75445235 7.30848993 2 5 C2 4.34 2 3.68 2 3 C1.34 3 0.68 3 0 3 C0 2.01 0 1.02 0 0 Z " fill="#9A1534" transform="translate(94,115)"/>
<path d="M0 0 C2.97 0.495 2.97 0.495 6 1 C6 1.66 6 2.32 6 3 C6.99 3.33 7.98 3.66 9 4 C8.1875 5.9375 8.1875 5.9375 7 8 C6.01 8.33 5.02 8.66 4 9 C4 8.34 4 7.68 4 7 C1.03 6.505 1.03 6.505 -2 6 C-1.34 4.02 -0.68 2.04 0 0 Z " fill="#950B2D" transform="translate(122,126)"/>
<path d="M0 0 C5.23175837 -0.38281159 8.37802694 0.78145293 13 3 C13 3.33 13 3.66 13 4 C11.33388095 4.042721 9.66617115 4.04063832 8 4 C7.67 3.67 7.34 3.34 7 3 C6.67 3.66 6.34 4.32 6 5 C6.66 5 7.32 5 8 5 C8.33 5.99 8.66 6.98 9 8 C5.08158173 6.69386058 2.67359191 5.16870152 0 2 C0 1.34 0 0.68 0 0 Z " fill="#9B223B" transform="translate(88,113)"/>
<path d="M0 0 C-0.11398665 1.62580966 -0.24155659 3.25067157 -0.375 4.875 C-0.44460937 5.77992187 -0.51421875 6.68484375 -0.5859375 7.6171875 C-1 10 -1 10 -3 12 C-3.33 9.69 -3.66 7.38 -4 5 C-5.65 4.67 -7.3 4.34 -9 4 C-3.7826087 0 -3.7826087 0 0 0 Z " fill="#9B2D3D" transform="translate(232,99)"/>
<path d="M0 0 C4.81430721 -0.56638908 7.20307814 1.17438373 11 4 C10.67 4.99 10.34 5.98 10 7 C8.88625 6.484375 7.7725 5.96875 6.625 5.4375 C4.830625 4.7259375 4.830625 4.7259375 3 4 C2.01 4.495 2.01 4.495 1 5 C0.67 3.35 0.34 1.7 0 0 Z " fill="#FCF5F1" transform="translate(65,98)"/>
<path d="M0 0 C1.67542976 0.28604898 3.34385343 0.61781233 5 1 C5 1.66 5 2.32 5 3 C5.66 3.33 6.32 3.66 7 4 C6.34 4 5.68 4 5 4 C4.67 4.99 4.34 5.98 4 7 C2 6.33333333 0 5.66666667 -2 5 C-1.125 1.125 -1.125 1.125 0 0 Z " fill="#910B2B" transform="translate(104,119)"/>
<path d="M0 0 C1.32 0.33 2.64 0.66 4 1 C2.66654496 4.59007126 1.1056769 7.79570907 -1 11 C-1.33 11 -1.66 11 -2 11 C-1.85892253 9.54119891 -1.71197585 8.08296449 -1.5625 6.625 C-1.48128906 5.81289062 -1.40007812 5.00078125 -1.31640625 4.1640625 C-1 2 -1 2 0 0 Z " fill="#DEB89C" transform="translate(230,109)"/>
<path d="M0 0 C1 2 1 2 0.51171875 4.05859375 C0.23972656 4.84363281 -0.03226563 5.62867187 -0.3125 6.4375 C-0.57675781 7.21996094 -0.84101563 8.00242187 -1.11328125 8.80859375 C-2 11 -2 11 -4 14 C-4 12.35 -4 10.7 -4 9 C-5.98 9.99 -5.98 9.99 -8 11 C-7.04454634 9.53977837 -6.08553322 8.08188532 -5.125 6.625 C-4.59132812 5.81289062 -4.05765625 5.00078125 -3.5078125 4.1640625 C-2 2 -2 2 0 0 Z " fill="#F9EFE5" transform="translate(174,88)"/>
<path d="M0 0 C-4.30769231 3.07692308 -4.30769231 3.07692308 -7.8125 2.6875 C-8.534375 2.460625 -9.25625 2.23375 -10 2 C-6.86358686 -1.13641314 -4.14410883 -1.38136961 0 0 Z " fill="#F6E7DA" transform="translate(216,106)"/>
<path d="M0 0 C3.57104439 1.87949705 5.54744301 3.17053157 7 7 C5.35 7 3.7 7 2 7 C1.34 4.69 0.68 2.38 0 0 Z " fill="#FAF4E6" transform="translate(123,91)"/>
<path d="M0 0 C2.125 0.375 2.125 0.375 4 1 C4 1.66 4 2.32 4 3 C5.32 3 6.64 3 8 3 C8 3.66 8 4.32 8 5 C4.7 4.01 1.4 3.02 -2 2 C-1.34 1.34 -0.68 0.68 0 0 Z " fill="#A23140" transform="translate(122,132)"/>
<path d="M0 0 C2.31 0 4.62 0 7 0 C5.68 0.33 4.36 0.66 3 1 C3.33 2.32 3.66 3.64 4 5 C2.35 4.01 0.7 3.02 -1 2 C-0.67 1.34 -0.34 0.68 0 0 Z " fill="#A12D40" transform="translate(85,112)"/>
<path d="M0 0 C1.32 1.65 2.64 3.3 4 5 C3.34 5 2.68 5 2 5 C2 6.98 2 8.96 2 11 C1.67 11 1.34 11 1 11 C0.67 7.37 0.34 3.74 0 0 Z " fill="#E3C39D" transform="translate(68,101)"/>
<path d="" fill="#99263B" transform="translate(0,0)"/>
</svg>
