<svg xmlns="http://www.w3.org/2000/svg" xmlns:xlink="http://www.w3.org/1999/xlink" width="2000" zoomAndPan="magnify" viewBox="0 0 1500 1499.999933" height="2000" preserveAspectRatio="xMidYMid meet" version="1.0"><defs><g/><clipPath id="1bd90db333"><rect x="0" width="947" y="0" height="1500"/></clipPath></defs><rect x="-150" width="1800" fill="#ffffff" y="-149.999993" height="1799.99992" fill-opacity="1"/><rect x="-150" width="1800" fill="#95e1d3" y="-149.999993" height="1799.99992" fill-opacity="1"/><g transform="matrix(1, 0, 0, 1, 277, 0.000000000000112861)"><g clip-path="url(#1bd90db333)"><g fill="#212527" fill-opacity="1"><g transform="translate(0.711738, 1191.172634)"><g><path d="M 88.796875 1.28125 C 71.640625 1.28125 59.414062 -0.644531 52.125 -4.5 C 44.832031 -8.363281 41.1875 -15.875 41.1875 -27.03125 C 41.1875 -34.75 43.972656 -41.179688 49.546875 -46.328125 C 55.117188 -51.472656 61.765625 -55.765625 69.484375 -59.203125 C 96.085938 -64.347656 115.175781 -70.132812 126.75 -76.5625 C 138.332031 -83 145.835938 -92.4375 149.265625 -104.875 C 152.703125 -117.320312 154.421875 -135.125 154.421875 -158.28125 L 154.421875 -742.53125 C 154.421875 -765.6875 152.921875 -783.484375 149.921875 -795.921875 C 146.921875 -808.367188 139.414062 -817.804688 127.40625 -824.234375 C 115.394531 -830.671875 96.085938 -836.460938 69.484375 -841.609375 C 61.765625 -844.191406 55.117188 -848.269531 49.546875 -853.84375 C 43.972656 -859.414062 41.1875 -866.0625 41.1875 -873.78125 C 41.1875 -884.9375 44.832031 -892.441406 52.125 -896.296875 C 59.414062 -900.160156 71.640625 -902.09375 88.796875 -902.09375 L 337.15625 -902.09375 C 352.601562 -902.09375 363.539062 -900.160156 369.96875 -896.296875 C 376.40625 -892.441406 379.625 -884.9375 379.625 -873.78125 C 379.625 -866.0625 377.050781 -859.628906 371.90625 -854.484375 C 366.757812 -849.335938 360.753906 -845.046875 353.890625 -841.609375 C 329.015625 -836.460938 310.785156 -830.671875 299.203125 -824.234375 C 287.617188 -817.804688 280.320312 -808.367188 277.3125 -795.921875 C 274.3125 -783.484375 272.8125 -765.6875 272.8125 -742.53125 L 272.8125 -496.734375 C 272.8125 -485.578125 275.382812 -478.710938 280.53125 -476.140625 C 285.6875 -473.566406 293.835938 -477.859375 304.984375 -489.015625 L 604.828125 -773.40625 C 627.140625 -794.851562 634.003906 -810.722656 625.421875 -821.015625 C 616.835938 -831.316406 594.101562 -839.898438 557.21875 -846.765625 C 543.488281 -853.628906 536.625 -863.492188 536.625 -876.359375 C 536.625 -888.367188 541.984375 -896.085938 552.703125 -899.515625 C 563.429688 -902.953125 579.519531 -904.671875 600.96875 -904.671875 L 814.59375 -904.671875 C 831.75 -904.671875 846.117188 -902.738281 857.703125 -898.875 C 869.285156 -895.019531 875.078125 -886.65625 875.078125 -873.78125 C 875.078125 -862.632812 871.429688 -854.703125 864.140625 -849.984375 C 856.847656 -845.265625 848.050781 -842.046875 837.75 -840.328125 C 818.019531 -839.472656 800.644531 -837.757812 785.625 -835.1875 C 770.613281 -832.613281 756.242188 -827.25 742.515625 -819.09375 C 728.796875 -810.945312 712.5 -797.4375 693.625 -778.5625 L 530.1875 -618.984375 C 523.320312 -612.117188 519.460938 -603.109375 518.609375 -591.953125 C 517.753906 -580.804688 520.328125 -570.515625 526.328125 -561.078125 L 794 -126.109375 C 809.445312 -100.367188 824.03125 -82.992188 837.75 -73.984375 C 851.476562 -64.984375 872.925781 -59.625 902.09375 -57.90625 C 921.832031 -54.476562 931.703125 -44.613281 931.703125 -28.3125 C 931.703125 -16.300781 926.984375 -8.363281 917.546875 -4.5 C 908.109375 -0.644531 895.664062 1.28125 880.21875 1.28125 L 638.296875 1.28125 C 627.140625 1.28125 617.484375 -0.644531 609.328125 -4.5 C 601.179688 -8.363281 597.109375 -15.875 597.109375 -27.03125 C 597.109375 -41.613281 607.832031 -51.046875 629.28125 -55.328125 C 661.882812 -58.765625 679.257812 -65.203125 681.40625 -74.640625 C 683.550781 -84.078125 676.898438 -101.664062 661.453125 -127.40625 L 445.265625 -465.84375 C 435.828125 -483.007812 425.957031 -490.734375 415.65625 -489.015625 C 405.363281 -487.296875 395.5 -481.71875 386.0625 -472.28125 L 298.5625 -388.640625 C 291.695312 -380.910156 285.6875 -372.113281 280.53125 -362.25 C 275.382812 -352.382812 272.8125 -338.445312 272.8125 -320.4375 L 272.8125 -158.28125 C 272.8125 -135.125 274.3125 -117.320312 277.3125 -104.875 C 280.320312 -92.4375 287.832031 -83 299.84375 -76.5625 C 311.851562 -70.132812 330.726562 -64.347656 356.46875 -59.203125 C 363.332031 -56.617188 369.550781 -52.539062 375.125 -46.96875 C 380.695312 -41.394531 383.484375 -34.75 383.484375 -27.03125 C 383.484375 -15.875 380.265625 -8.363281 373.828125 -4.5 C 367.398438 -0.644531 355.609375 1.28125 338.453125 1.28125 Z M 88.796875 1.28125 "/></g></g></g></g></g></svg>