<?xml version="1.0" encoding="utf-8"?>
<!-- Generator: Adobe Illustrator 22.0.1, SVG Export Plug-In . SVG Version: 6.00 Build 0)  -->
<svg version="1.0" id="Layer_1" xmlns="http://www.w3.org/2000/svg" xmlns:xlink="http://www.w3.org/1999/xlink" x="0px" y="0px"
	 viewBox="136.5 3.6 367.1 472.7" enable-background="new 0 0 640 480" xml:space="preserve">
<path d="M416.4,129.1l30.7-53.5c9.2-15.6,3.7-35.5-12-44.7c-15.6-9-35.5-3.7-44.7,12l-30.7,53.5c-65.7-20.8-139.4,5.9-175.3,68.2
	c-22.8,39.5-25.6,85.2-11.6,124.9l56.8-98.8c13.1-22.8,34.2-39,59.4-45.8c25.4-6.8,51.9-3.5,74.5,9.8c46.9,27,62.9,87,35.9,134.1
	c-27,47.1-87,62.9-134.1,35.9l32.7-56.6c15.6,9.2,35.5,3.7,44.7-12c9.2-15.6,3.7-35.5-12-44.7c-15.6-9-35.5-3.7-44.7,12L182.1,403.9
	c-9,15.6-3.7,35.5,12,44.7c15.6,9.2,35.5,3.7,44.7-12l30.7-53.5c65.7,20.8,139.4-5.9,175.3-68.2C481,252.7,467.3,175.4,416.4,129.1
	L416.4,129.1z"/>
<rect x="136.5" y="3.6" fill="none" width="367.1" height="472.7"/>
</svg>
