<svg xmlns="http://www.w3.org/2000/svg" clip-rule="evenodd" fill-rule="evenodd" height="771" image-rendering="optimizeQuality" shape-rendering="geometricPrecision" text-rendering="geometricPrecision" viewBox="62.29553399999998 -0.07808798649673987 53.66121599999998 55.0590099766323" width="752"><path d="M67.575 17.455c.27 0 .53-.043.78-.106l8.975 30.506h.01c.996 3.406 5.957 5.99 11.915 5.99 5.973 0 10.924-2.584 11.93-5.99l8.975-30.486c.217.048.442.086.679.086A3.159 3.159 0 0 0 114 14.297a3.157 3.157 0 0 0-6.314 0c0 1.252.732 2.335 1.79 2.84L99.082 39.423l1.67-30.034h.072a3.152 3.152 0 0 0 0-6.304 3.156 3.156 0 0 0-3.157 3.156c0 1.44.967 2.648 2.276 3.027l-6.92 29.357-3.335-32.35a3.155 3.155 0 1 0-3.604-3.127 3.165 3.165 0 0 0 2.723 3.128l-3.33 32.29-6.906-29.293a3.152 3.152 0 0 0-.851-6.188 3.156 3.156 0 0 0-3.158 3.156A3.154 3.154 0 0 0 77.72 9.39h.048l1.67 30.02-10.42-22.316a3.149 3.149 0 0 0 1.714-2.796 3.159 3.159 0 0 0-3.157-3.156 3.15 3.15 0 0 0-3.152 3.156 3.15 3.15 0 0 0 3.152 3.158zm21.632 27.84c5.458 0 9.889 1.39 9.889 3.103 0 1.724-4.431 3.11-9.89 3.11-5.462 0-9.883-1.386-9.883-3.11 0-1.712 4.421-3.103 9.884-3.103z" fill="#88630a"/><g fill="#094d1c"><path d="M54.35 66.637c-9.051 0-16.385 7.349-16.385 16.17 0 8.825 7.334 16.164 16.386 16.164 9.043 0 16.381-7.339 16.381-16.165 0-8.82-7.338-16.169-16.381-16.169zm6.81 25.505a8.136 8.136 0 0 1-1.886 1.993c-1.207.958-2.593 1.52-4.057 1.577a8.49 8.49 0 0 1-1.742 0c-1.462-.057-2.844-.62-4.057-1.577a8.162 8.162 0 0 1-1.886-1.993c-1.699-2.343-2.762-5.65-2.762-9.307 0-3.437.938-6.559 2.464-8.864a7.96 7.96 0 0 1 3.82-3.436c.01-.005.03-.01.038-.02.078-.033.155-.066.237-.09.217-.087.438-.175.664-.231a8.39 8.39 0 0 1 4.711 0c.227.056.447.144.659.225.083.03.16.063.242.096a.11.11 0 0 0 .038.02 8.003 8.003 0 0 1 3.82 3.436c1.522 2.31 2.464 5.427 2.464 8.864 0 3.657-1.068 6.964-2.767 9.307zM103.192 86.174h-2.277v4.558a5.045 5.045 0 0 1-5.038 4.924c-.01 0-.023-.005-.029-.005v.008h-9.582V70.063h4.39v-2.285H74.827v2.285h4.395V95.66h-4.395v2.282h28.365v-.01h.009v-7.45h-.009v-4.307zM137.802 67.791h-29.827v2.277h4.307v25.606h-4.307v2.292h29.986V87.098h-2.286v3.596a5.061 5.061 0 0 1-5.053 4.985h-.029v.01h-8.128v-.01h-3.143V82.97h2.287c.018 0 .038.005.062.005h1.266a3.72 3.72 0 0 1 3.69 3.724v1.742h2.084V75.82h-2.074v1.462h-.01c0 .03.01.058.01.083 0 2.045-1.645 3.508-3.7 3.522h-3.615V70.068h11.329c2.752.01 4.98 2.242 5.024 4.991v3.098h2.285V67.79h-.158zM176.926 95.77c-2.194-.057-2.704-.74-4.393-2.676l-9.991-12.429 6.603-7.893v.01c1.78-2.03 2.267-2.719 4.542-2.767h1.719v-2.2h-12.165v2.2h2.679v.01h.005c.577 0 1.04.462 1.04 1.03a.998.998 0 0 1-.198.6l-5.846 6.988-4.6-5.726-.964-1.213a1.038 1.038 0 0 1-.245-.645c0-.573.467-1.035 1.04-1.044h2.617v-2.2h-15.227v2.2h.717c1.95.09 2.504.76 4.034 2.507l8.84 10.996-7.959 9.504v-.019c-1.776 2.027-2.262 2.724-4.553 2.767h-1.857v2.2h13.022v-2.2h-3.2v-.005h-.01a1.038 1.038 0 0 1-1.04-1.038c0-.247.092-.467.236-.646l7.07-8.435 5.87 7.314.896 1.121a1.035 1.035 0 0 1-.81 1.684s0-.005-.004-.005v.005h-2.815v2.204h16.416v-2.2h-1.469zM32.797 95.626l-1.998-5.799c-.929-2.575-1.597-3.734-3.056-5.072-.957-.856-2.295-1.275-3.292-1.56a7.78 7.78 0 0 0 6.54-7.68 7.78 7.78 0 0 0-7.78-7.777c-.044 0-.088.005-.146.005v-.005H.081v2.267h4.241V95.64H0v2.276h15.703V95.64h-4.341V83.326h3.374c.106 0 .202.005.308.01h.687c1.073.039 2.003.197 2.845.437.775.198 1.598.472 2.15.823.747.477 1.536 1.151 2.235 2.343.182.318.34.636.49.959 1.285 2.411 2.055 5.75 2.91 10.005h5.184v.005h4.678v-2.282h-3.426zM18.725 81.03h-7.344V70h7.344c3.157.12 5.688 2.315 5.688 5.51 0 3.201-2.527 5.386-5.688 5.52z"/></g></svg>