<?xml version="1.0" encoding="UTF-8"?>
<svg version="1.1" xmlns="http://www.w3.org/2000/svg" width="2000" height="2000" viewBox="0 0 2000 2000">
<path d="M0 0 C1.6400822 -0.00134866 3.2801641 -0.00313368 4.92024541 -0.00531223 C9.41838364 -0.01002368 13.91650154 -0.00854657 18.41464075 -0.00603446 C23.31226471 -0.00439725 28.2098844 -0.00854573 33.10750699 -0.01194364 C41.68940956 -0.01709274 50.27130649 -0.01851568 58.85321045 -0.01748753 C71.61672711 -0.01596215 84.38023754 -0.0201256 97.14375299 -0.02536215 C121.27593327 -0.03503612 145.40811143 -0.0378465 169.54029343 -0.03841921 C172.20199345 -0.03848482 174.86369347 -0.03855262 177.52539349 -0.03862262 C178.18597772 -0.03863962 178.84656195 -0.03865663 179.52716389 -0.03867415 C194.18376758 -0.03908308 208.84037089 -0.04127468 223.49697437 -0.04377846 C229.53804398 -0.04480692 235.57911361 -0.04579696 241.62018323 -0.04679471 C242.62155813 -0.0469606 242.62155813 -0.0469606 243.64316283 -0.04712983 C281.90206208 -0.05345428 320.16096104 -0.05757898 358.41986084 -0.05712128 C359.85148598 -0.0571055 361.28311112 -0.05708976 362.71473626 -0.05707407 C369.17785652 -0.05700069 375.64097678 -0.05691252 382.10409703 -0.05682018 C384.98591615 -0.05677906 387.86773527 -0.05673891 390.74955439 -0.05669887 C392.19196001 -0.05667848 393.63436563 -0.05665746 395.07677125 -0.05663581 C440.60483025 -0.0559568 486.13288145 -0.06325129 531.66093826 -0.07717609 C543.11574552 -0.08067768 554.57055279 -0.0841474 566.02536011 -0.08744049 C566.73086453 -0.08764336 567.43636896 -0.08784624 568.16325231 -0.08805526 C589.95105129 -0.09428242 611.73884964 -0.09803823 633.52664948 -0.09929848 C634.55467906 -0.0993584 634.55467906 -0.0993584 635.60347692 -0.09941954 C650.65840175 -0.10027335 665.71332653 -0.10053384 680.76825138 -0.10024916 C686.15739161 -0.1001527 691.54653184 -0.10010064 696.93567207 -0.10007043 C698.27617088 -0.10006252 699.6166697 -0.10005232 700.95716851 -0.10003981 C722.87216712 -0.0998589 744.7871593 -0.10608127 766.70215598 -0.11499082 C788.1064489 -0.12351188 809.51073223 -0.12442282 830.91502592 -0.1178815 C842.48938683 -0.1145341 854.06372588 -0.11428914 865.63808441 -0.12323475 C955.68543727 -0.18944361 955.68543727 -0.18944361 993.63359451 2.12863445 C995.5046212 2.23953012 997.37566266 2.3501767 999.24671698 2.46060526 C1092.71430732 8.02946815 1182.16803712 22.25834017 1261.63359451 75.12863445 C1262.73453445 75.8571159 1262.73453445 75.8571159 1263.85771561 76.60031414 C1287.07281022 92.02666625 1308.68721252 109.67966847 1328.63359451 129.12863445 C1329.50693436 129.98006023 1330.3802742 130.83148602 1331.28007889 131.70871258 C1334.07391417 134.44356471 1336.8560322 137.1897617 1339.63359451 139.94113445 C1340.92378494 141.2116264 1340.92378494 141.2116264 1342.24003983 142.50778484 C1347.37750211 147.638773 1352.08320572 152.96551731 1356.62382889 158.63083172 C1358.69366145 161.20328762 1360.84086994 163.68441939 1363.02910233 166.15548992 C1382.08454261 187.75944078 1397.93712211 212.86655885 1411.63359451 238.12863445 C1412.39929764 239.53459881 1412.39929764 239.53459881 1413.18046951 240.96896648 C1455.65934344 319.39453602 1463.71813294 411.53379476 1466.29253006 503.21042156 C1466.32387039 504.42350994 1466.35521072 505.63659832 1466.38750076 506.88644695 C1466.4233931 508.4819035 1466.4233931 508.4819035 1466.46001053 510.10959148 C1466.57068146 513.10192247 1466.57068146 513.10192247 1467.13653727 515.90334209 C1467.65110545 519.24225898 1467.75923311 522.37508598 1467.76009434 525.75235522 C1467.76162089 526.39669902 1467.76314744 527.04104282 1467.76472025 527.70491219 C1467.76861859 529.86513586 1467.76540476 532.0252895 1467.76222897 534.1855135 C1467.76357561 535.75627115 1467.7653595 537.32702847 1467.7675412 538.89778519 C1467.77227989 543.23155092 1467.77076666 547.56529569 1467.76826343 551.89906247 C1467.76663314 556.60836961 1467.77076899 561.3176722 1467.7741726 566.0269779 C1467.77933329 574.28814137 1467.78074264 582.54929898 1467.77971649 590.81046391 C1467.77819394 603.09821316 1467.78234852 615.38595591 1467.78759112 627.6737039 C1467.79727844 650.91312955 1467.80007605 674.15255299 1467.80064818 697.39198042 C1467.80110786 715.37037491 1467.80316695 733.34876854 1467.8063488 751.32716274 C1467.80724642 756.50450782 1467.80813623 761.6818529 1467.80902368 766.85919797 C1467.80924473 768.14647271 1467.80946577 769.43374745 1467.80969352 770.76003052 C1467.81585262 806.99931099 1467.81979958 843.23859092 1467.81935024 879.47787189 C1467.81933446 880.85915091 1467.81931873 882.24042992 1467.81930303 883.62170894 C1467.81922966 889.85750036 1467.81914149 896.09329177 1467.81904915 902.32908319 C1467.81900803 905.10949828 1467.81896788 907.88991336 1467.81892784 910.67032845 C1467.81890744 912.06198532 1467.81888642 913.45364219 1467.81886478 914.84529906 C1467.81818684 958.70244297 1467.82546008 1002.55957876 1467.83940506 1046.41672039 C1467.84290695 1057.43611238 1467.84637683 1068.45550438 1467.84966946 1079.47489643 C1467.84997377 1080.49307081 1467.84997377 1080.49307081 1467.85028423 1081.53181437 C1467.85651923 1102.52123271 1467.86026877 1123.51065039 1467.86152744 1144.50006962 C1467.86156739 1145.16112888 1467.86160734 1145.82218814 1467.86164851 1146.5032795 C1467.86254103 1161.68319417 1467.86273125 1176.86310878 1467.86244184 1192.04302347 C1467.86236722 1197.23985855 1467.8623185 1202.43669363 1467.86228752 1207.63352871 C1467.86227587 1208.91301174 1467.86226421 1210.19249477 1467.86225221 1211.51075001 C1467.86222164 1231.95890156 1467.86856464 1252.40704617 1467.87721979 1272.85519567 C1467.88577439 1293.4965855 1467.88662638 1314.13796538 1467.88011046 1334.77935602 C1467.87677974 1345.92679704 1467.87645524 1357.07421544 1467.88546371 1368.22165394 C1467.91571493 1407.5865549 1467.90666331 1446.93305785 1466.70044327 1486.28277874 C1466.67940643 1486.9703902 1466.65836959 1487.65800166 1466.63669527 1488.36644983 C1463.69214859 1583.64412502 1456.81296324 1682.54575668 1352.68046951 1844.8669157 C1350.80849761 1846.93537321 1348.96496061 1849.02424359 1347.13359451 1851.12863445 C1338.47504978 1861.04406471 1329.72705348 1870.74042063 1319.71953201 1879.32394695 C1317.38333951 1881.34514721 1315.103946 1883.42242284 1312.82109451 1885.50363445 C1307.56949401 1890.2308694 1302.16212661 1894.73025305 1296.63359451 1899.12863445 C1295.97826736 1899.65118816 1295.32294022 1900.17374187 1294.64775467 1900.71213055 C1269.48634619 1920.70988108 1242.56885418 1938.11813616 1213.63261795 1952.1535368 C1211.68004157 1953.10597818 1209.73878628 1954.07890173 1207.79765701 1955.0544157 C1172.23382514 1972.65917681 1131.94614334 1983.38885519 1092.63359451 1988.12863445 C1087.78257605 1988.72796831 1082.93593222 1989.35175239 1078.09062576 1989.99582195 C1069.94259902 1991.07527975 1061.79003469 1992.1149434 1053.63359451 1993.12863445 C1052.45007401 1993.27623211 1051.2665535 1993.42382977 1050.04716873 1993.57590008 C1027.3095819 1996.34309882 1004.50595196 1997.25221917 981.63359451 1998.12863445 C980.61537932 1998.1680461 979.59716412 1998.20745775 978.54809392 1998.2480637 C961.20366396 1998.91402917 943.86378993 1999.40547202 926.50882339 1999.68304729 C924.5726322 1999.71450459 924.5726322 1999.71450459 922.59732603 1999.74659739 C885.4622418 2000.33742118 848.32304012 2000.27211839 811.18431655 2000.26030303 C800.22719947 2000.25702549 789.2700855 2000.25974625 778.31296856 2000.26250649 C756.87217686 2000.26771862 735.43138817 2000.2673382 713.9905962 2000.26442757 C695.26008345 2000.26189764 676.5295718 2000.26126201 657.79905891 2000.26245022 C656.54969281 2000.2625266 655.3003267 2000.26260299 654.01310102 2000.26268169 C648.94029403 2000.26299308 643.86748704 2000.26331149 638.79468004 2000.26364145 C603.50048363 2000.26590983 568.20628757 2000.26633541 532.91209126 2000.26257801 C532.24997295 2000.26250776 531.58785464 2000.26243751 530.90567214 2000.26236513 C520.15767109 2000.2612206 509.40967006 2000.26000096 498.66166903 2000.25877496 C455.91231957 2000.25390389 413.16297325 2000.25415965 370.41362381 2000.25900555 C359.60514991 2000.26022683 348.79667601 2000.26143791 337.9882021 2000.26257801 C337.32259003 2000.26264846 336.65697796 2000.26271891 335.97119583 2000.26279149 C300.06262307 2000.26656594 264.15405046 2000.26573737 228.24547762 2000.26339328 C223.19973942 2000.26307259 218.15400122 2000.26275975 213.10826302 2000.26245022 C211.24496871 2000.2623316 211.24496871 2000.2623316 209.3440321 2000.26221059 C190.58967723 2000.2610733 171.83532356 2000.26240271 153.08096886 2000.26492977 C131.7988529 2000.26778333 110.5167404 2000.26708559 89.23462487 2000.26164903 C77.32478748 2000.25870705 65.41495756 2000.25852944 53.50512035 2000.2622952 C45.55961985 2000.26453098 37.61412537 2000.26315407 29.66862576 2000.25879043 C25.13734838 2000.25640347 20.6060859 2000.25561535 16.07480896 2000.25919642 C11.95578546 2000.2624187 7.83679015 2000.26106589 3.71776872 2000.25601576 C2.23469266 2000.25500609 0.75161428 2000.25568126 -0.73145994 2000.25822169 C-2.74279488 2000.26142342 -4.75413718 2000.25786571 -6.76547092 2000.25398362 C-7.87980692 2000.25391586 -8.99414291 2000.2538481 -10.14224666 2000.25377829 C-13.60689434 2000.11930002 -16.94219886 1999.66028 -20.36640549 1999.12863445 C-21.80176309 1999.03390763 -23.23945984 1998.96626732 -24.67768478 1998.93918133 C-25.44505463 1998.9224638 -26.21242447 1998.90574627 -27.00304794 1998.88852215 C-27.80744812 1998.87494671 -28.6118483 1998.86137127 -29.44062424 1998.84738445 C-30.28687866 1998.82897503 -31.13313309 1998.81056561 -32.00503159 1998.79159832 C-35.59875901 1998.71346795 -39.19265347 1998.64510081 -42.7865715 1998.57638836 C-45.42134709 1998.52458164 -48.05596794 1998.46739383 -50.69062424 1998.40988445 C-51.50109711 1998.39630901 -52.31156998 1998.38273357 -53.14660263 1998.36874676 C-56.72100242 1998.28990512 -59.91700014 1998.00603845 -63.36640549 1997.12863445 C-66.07204089 1996.93312653 -68.76288731 1996.77938755 -71.47187424 1996.6637907 C-73.11315445 1996.58510153 -74.75443034 1996.50632234 -76.39570236 1996.42746258 C-78.95315334 1996.30932935 -81.51067066 1996.19306132 -84.06830978 1996.07907391 C-94.28101868 1995.61772566 -104.37888307 1994.9016142 -114.52192307 1993.61276531 C-117.88961973 1993.18867549 -121.25425118 1992.81977769 -124.63203049 1992.48800945 C-162.31405668 1988.70356996 -199.93029522 1982.28736783 -235.82270432 1969.99606609 C-238.16489272 1969.19735265 -240.51574745 1968.4328141 -242.87031174 1967.6716032 C-277.55694493 1956.09655665 -309.69924499 1937.2274086 -339.36640549 1916.12863445 C-340.15692307 1915.56869793 -340.94744064 1915.00876141 -341.7619133 1914.43185711 C-352.73886275 1906.64012396 -363.47504087 1898.68893466 -373.53828049 1889.73019695 C-375.27748528 1888.20653463 -377.06034827 1886.75929232 -378.86640549 1885.31613445 C-380.10390549 1884.23332195 -380.10390549 1884.23332195 -381.36640549 1883.12863445 C-381.36640549 1882.46863445 -381.36640549 1881.80863445 -381.36640549 1881.12863445 C-381.94132736 1880.88242352 -382.51624924 1880.63621258 -383.10859299 1880.3825407 C-385.72280376 1878.93070393 -387.42976757 1877.22575896 -389.49140549 1875.06613445 C-392.14545549 1872.21291513 -392.14545549 1872.21291513 -395.36640549 1870.12863445 C-395.36640549 1869.46863445 -395.36640549 1868.80863445 -395.36640549 1868.12863445 C-396.02640549 1868.12863445 -396.68640549 1868.12863445 -397.36640549 1868.12863445 C-397.36640549 1867.46863445 -397.36640549 1866.80863445 -397.36640549 1866.12863445 C-398.02640549 1866.12863445 -398.68640549 1866.12863445 -399.36640549 1866.12863445 C-399.36640549 1865.46863445 -399.36640549 1864.80863445 -399.36640549 1864.12863445 C-400.02640549 1864.12863445 -400.68640549 1864.12863445 -401.36640549 1864.12863445 C-402.91718674 1862.5544157 -402.91718674 1862.5544157 -404.67890549 1860.44113445 C-406.61755148 1858.12782878 -408.56329747 1855.93305727 -410.70624924 1853.8044157 C-413.83231983 1850.65998346 -416.72859699 1847.3656664 -419.61640549 1844.00363445 C-420.15781174 1843.38359539 -420.69921799 1842.76355633 -421.25703049 1842.1247282 C-422.03046799 1841.22560711 -422.03046799 1841.22560711 -422.81953049 1840.30832195 C-423.51804123 1839.49983807 -423.51804123 1839.49983807 -424.2306633 1838.67502117 C-425.36640549 1837.12863445 -425.36640549 1837.12863445 -426.36640549 1834.12863445 C-427.02640549 1834.12863445 -427.68640549 1834.12863445 -428.36640549 1834.12863445 C-429.87512512 1832.39651414 -431.29560456 1830.58747039 -432.67890549 1828.75363445 C-433.3240007 1827.90188641 -433.3240007 1827.90188641 -433.98212814 1827.03293133 C-438.37813219 1821.19232602 -442.64699434 1815.25675928 -446.89887619 1809.31076336 C-449.09476467 1806.24375906 -451.28518132 1803.22816847 -453.67109299 1800.3044157 C-455.68440407 1797.72051184 -456.49142727 1795.26397305 -457.36640549 1792.12863445 C-458.02640549 1792.12863445 -458.68640549 1792.12863445 -459.36640549 1792.12863445 C-459.98515549 1790.99425945 -460.60390549 1789.85988445 -461.24140549 1788.69113445 C-463.36263993 1784.86693715 -465.55785986 1781.09265031 -467.78681564 1777.33078289 C-469.99345339 1773.60458381 -472.18316616 1769.8685835 -474.36640549 1766.12863445 C-474.78615646 1765.40998211 -475.20590744 1764.69132977 -475.63837814 1763.95090008 C-486.14292816 1745.84442717 -494.56984115 1726.92030257 -501.36640549 1707.12863445 C-501.61044113 1706.4222282 -501.85447678 1705.71582195 -502.10590744 1704.98800945 C-515.41566391 1665.83088914 -523.62887393 1622.9778826 -526.12031174 1581.6403532 C-526.21463689 1579.13395031 -526.21463689 1579.13395031 -527.36640549 1577.12863445 C-527.58143632 1574.44317558 -527.74368825 1571.77563092 -527.86640549 1569.0856657 C-527.90701096 1568.28384365 -527.94761642 1567.4820216 -527.98945236 1566.65590191 C-528.11932497 1564.08450224 -528.24338122 1561.51287024 -528.36640549 1558.94113445 C-528.48984307 1556.38727843 -528.61464307 1553.83352106 -528.74335861 1551.27992535 C-528.8233643 1549.6906557 -528.90035288 1548.1012303 -528.97382736 1546.51164532 C-529.01056564 1545.7778616 -529.04730392 1545.04407787 -529.08515549 1544.28805828 C-529.11544846 1543.65233395 -529.14574142 1543.01660961 -529.17695236 1542.3616209 C-529.34842603 1540.0021086 -529.34842603 1540.0021086 -529.8453328 1537.18560678 C-530.57002954 1532.13936582 -530.70818686 1527.07377432 -530.89302158 1521.98409081 C-530.93542573 1520.85644782 -530.97782988 1519.72880484 -531.021519 1518.56699086 C-531.16012526 1514.74286609 -531.28931106 1510.91849695 -531.41372299 1507.09389019 C-531.44695542 1506.08089408 -531.44695542 1506.08089408 -531.48085921 1505.04743341 C-532.77276647 1465.28955323 -532.64695213 1425.52093892 -532.6156846 1385.74666108 C-532.60704948 1374.21479907 -532.61047118 1362.68294698 -532.61402498 1351.15108339 C-532.62024081 1329.88162128 -532.61719807 1308.61217037 -532.60843086 1287.34270954 C-532.59976956 1266.3248646 -532.59491182 1245.3070247 -532.5950985 1224.28917789 C-532.59510614 1222.97406151 -532.59511379 1221.65894512 -532.59512166 1220.30397672 C-532.59516258 1214.96418377 -532.59522548 1209.62439081 -532.59532748 1204.28459786 C-532.59560482 1189.36930176 -532.59521715 1174.45400572 -532.59433842 1159.53870964 C-532.59429875 1158.86009069 -532.59425907 1158.18147173 -532.5942182 1157.48228857 C-532.59291419 1135.92445559 -532.58875655 1114.36662419 -532.58248043 1092.80879211 C-532.58227749 1092.1115413 -532.58207455 1091.41429049 -532.58186546 1090.69591087 C-532.57855792 1079.37755196 -532.57506208 1068.05919311 -532.57155675 1056.74083426 C-532.55763139 1011.74013563 -532.55102559 966.73944266 -532.55170822 921.73874187 C-532.55172861 920.31232533 -532.55174882 918.88590879 -532.55176886 917.45949225 C-532.55180904 914.6099684 -532.55184982 911.76044455 -532.55189097 908.91092069 C-532.5519824 902.52097821 -532.55206675 896.13103573 -532.55213756 889.74109326 C-532.55215333 888.32566131 -532.55216977 886.91022936 -532.55218688 885.49479742 C-532.55263205 847.69115501 -532.54816655 809.88751338 -532.54183465 772.08387154 C-532.54161438 770.7650188 -532.54139411 769.44616605 -532.54116716 768.08734807 C-532.54027902 762.78474406 -532.53939062 757.48214005 -532.53847621 752.17953604 C-532.53531888 733.74783892 -532.53380732 715.31614233 -532.53336472 696.88444495 C-532.53276808 673.17013068 -532.52878069 649.45582088 -532.51893326 625.74150852 C-532.51381761 613.2061747 -532.51140917 600.67084743 -532.51292944 588.13551261 C-532.51366352 579.76672633 -532.51076287 571.39794642 -532.50488563 563.02916218 C-532.50163474 558.26024298 -532.49994965 553.4913375 -532.50264623 548.72241763 C-532.50506498 544.38192092 -532.50286422 540.04145163 -532.49702812 535.70095839 C-532.49573148 534.14331959 -532.49609147 532.58567827 -532.49834472 531.02804056 C-532.5087961 523.16833592 -532.35727563 515.38373685 -531.59913446 507.55409707 C-531.29795481 504.41525294 -531.17518743 501.28389806 -531.08515549 498.1325407 C-531.04777267 496.91244305 -531.01038986 495.69234539 -530.97187424 494.43527508 C-530.93706955 493.19970867 -530.90226486 491.96414227 -530.86640549 490.69113445 C-530.30557729 471.34256169 -529.34837211 452.09193047 -527.55390549 432.81613445 C-527.46781021 431.87605541 -527.38171494 430.93597637 -527.29301071 429.96741009 C-525.70064358 412.63498674 -523.71751274 395.37456596 -521.36640549 378.12863445 C-521.13050705 376.35359539 -521.13050705 376.35359539 -520.88984299 374.54269695 C-511.09569658 310.66147335 -489.75799967 251.09771847 -452.36640549 198.12863445 C-451.86012619 197.40885418 -451.35384689 196.68907391 -450.8322258 195.94748211 C-444.32217893 186.72716944 -437.64187569 177.76077369 -430.36640549 169.12863445 C-428.71720323 167.13141156 -427.07134699 165.13142083 -425.42890549 163.12863445 C-424.69800705 162.24175945 -423.96710861 161.35488445 -423.21406174 160.44113445 C-421.26495107 158.06963425 -421.26495107 158.06963425 -419.36640549 155.12863445 C-418.70640549 155.12863445 -418.04640549 155.12863445 -417.36640549 155.12863445 C-417.09828049 154.55113445 -416.83015549 153.97363445 -416.55390549 153.37863445 C-415.3371136 151.07313403 -414.06306669 149.10807253 -412.36640549 147.12863445 C-411.70640549 147.12863445 -411.04640549 147.12863445 -410.36640549 147.12863445 C-410.36640549 146.46863445 -410.36640549 145.80863445 -410.36640549 145.12863445 C-408.49140549 143.00363445 -408.49140549 143.00363445 -406.36640549 141.12863445 C-405.70640549 141.12863445 -405.04640549 141.12863445 -404.36640549 141.12863445 C-404.13953049 140.5769157 -403.91265549 140.02519695 -403.67890549 139.45675945 C-401.97914622 136.44171028 -399.81835733 134.31633076 -397.36640549 131.87863445 C-396.47953049 130.9866032 -395.59265549 130.09457195 -394.67890549 129.17550945 C-392.36640549 127.12863445 -392.36640549 127.12863445 -390.36640549 127.12863445 C-390.36640549 126.46863445 -390.36640549 125.80863445 -390.36640549 125.12863445 C-389.03828049 123.7887907 -389.03828049 123.7887907 -387.11640549 122.19113445 C-383.61529551 119.22771676 -380.26296635 116.15374713 -376.92890549 113.00363445 C-370.14719813 106.69542715 -362.78522552 101.19337267 -355.37812424 95.6481657 C-353.57578339 94.28678592 -351.7943075 92.90457582 -350.02265549 91.50363445 C-332.36435607 77.59103491 -313.06081109 65.90756044 -293.36640549 55.12863445 C-292.58265549 54.69647625 -291.79890549 54.26431805 -290.99140549 53.81906414 C-260.23764154 36.94585583 -227.515595 25.86938376 -193.36640549 18.12863445 C-192.34965744 17.89692547 -191.33290939 17.66521648 -190.2853508 17.42648602 C-140.77020457 6.35265528 -88.75238088 2.85318524 -38.15180588 1.46969891 C-37.04313156 1.43835857 -35.93445724 1.40701824 -34.79218674 1.3747282 C-33.83739426 1.35079998 -32.88260178 1.32687176 -31.89887619 1.30221844 C-28.96777309 1.15818538 -26.08774124 0.90868768 -23.16852641 0.62582511 C-15.44748625 -0.02049823 -7.74093265 -0.01105787 0 0 Z " fill="#8753F3" transform="translate(532.3664054870605,-0.12863445281982422)"/>
<path d="M0 0 C1.99479822 -0.00346047 3.98959453 -0.00822764 5.98438686 -0.01418173 C11.44305053 -0.02666776 16.90155619 -0.02053223 22.36022031 -0.01122308 C28.25599112 -0.00442317 34.15173515 -0.01491847 40.04750061 -0.02316284 C51.5879987 -0.03649204 63.12843821 -0.03362611 74.66893858 -0.02492492 C84.04880725 -0.01803917 93.42866036 -0.01715342 102.80853081 -0.02049637 C103.80930718 -0.0208401 103.80930718 -0.0208401 104.83030125 -0.02119078 C107.53881739 -0.02212484 110.24733351 -0.02308004 112.95584963 -0.02407007 C138.34676794 -0.03324037 163.73765434 -0.02493713 189.12856772 -0.00877938 C211.67369583 0.00545834 234.21877309 0.00418141 256.76390076 -0.01016235 C282.11079896 -0.02623488 307.45766898 -0.03259157 332.80457157 -0.02332556 C335.50775492 -0.02236345 338.21093827 -0.02142493 340.91412163 -0.02049637 C341.57968365 -0.02025914 342.24524568 -0.0200219 342.93097625 -0.01977748 C352.9701722 -0.01636879 363.0093469 -0.02036768 373.04854012 -0.02793503 C384.46573996 -0.03635203 395.88287794 -0.03406554 407.30007071 -0.0180928 C413.12419283 -0.0102131 418.94821181 -0.0071135 424.77233315 -0.01704025 C430.10603773 -0.0259936 435.43954379 -0.02104355 440.77323043 -0.0051076 C442.70037438 -0.00176256 444.62753518 -0.0034476 446.55466826 -0.01073496 C456.22610592 -0.04449541 465.09150409 -0.00912999 474.29441833 3.38095093 C474.96974548 3.60876491 475.64507263 3.8365789 476.34086424 4.07129633 C489.65874584 8.70638864 500.10126323 15.64316014 510.29441833 25.38095093 C510.92090271 25.93266968 511.54738708 26.48438843 512.19285583 27.05282593 C521.4457901 35.51025906 526.42913227 47.32113278 530.93852234 58.75430298 C537.8123725 76.09624589 545.82957568 90.42331274 558.29441833 104.38095093 C558.94926208 105.18016968 559.60410583 105.97938843 560.27879333 106.80282593 C576.71214002 126.60711553 602.67170223 139.40891111 627.29441833 145.38095093 C628.28039851 145.63017618 629.26637869 145.87940144 630.28223705 146.13617897 C641.41438626 148.6810889 652.19479288 148.78980124 663.57493591 148.73397827 C665.67912389 148.73481078 667.7833117 148.73703223 669.88749695 148.74052429 C674.38899195 148.74544335 678.89035592 148.74143854 683.39183998 148.73051071 C690.51588874 148.71405195 697.63977592 148.72266 704.76382446 148.73535156 C723.73092194 148.76537089 742.6979887 148.76398867 761.66509789 148.74509871 C774.15063495 148.7327587 786.63598728 148.73463762 799.12150306 148.7634865 C806.19809515 148.77869177 813.2741843 148.77128184 820.35074484 148.74677634 C824.75439267 148.73668857 829.1578109 148.74741467 833.56143188 148.76389122 C835.59713323 148.767335 837.63287015 148.76227946 839.66852379 148.7479229 C860.47456411 148.61030504 860.47456411 148.61030504 869.73191833 156.44345093 C870.50535583 157.40251343 870.50535583 157.40251343 871.29441833 158.38095093 C871.83066833 159.02032593 872.36691833 159.65970093 872.91941833 160.31845093 C877.28844122 166.87198526 876.69163171 173.78969699 876.66941833 181.38095093 C876.6686026 182.42571091 876.6686026 182.42571091 876.66777039 183.49157715 C876.54385218 218.56092479 871.19785756 254.74737827 861.29441833 288.38095093 C860.87840257 289.83258738 860.463045 291.28441262 860.04832458 292.73641968 C859.03154883 296.26879449 857.98426633 299.79101564 856.91941833 303.30917358 C856.28637749 305.40760507 855.66537485 307.50938486 855.04441833 309.61141968 C852.98971027 316.47515551 850.76353327 323.10836335 847.60301208 329.56063843 C846.48624487 331.96752179 845.50866379 334.36670593 844.54832458 336.83798218 C841.93294188 343.43165054 838.88149469 349.81025457 835.79441833 356.19345093 C835.48828613 356.82723663 835.18215393 357.46102234 834.866745 358.11401367 C823.80803511 380.93544284 810.79118875 402.29559779 795.29441833 422.38095093 C794.50551208 423.43669312 793.71660583 424.4924353 792.90379333 425.58016968 C787.54640874 432.72476167 781.82910325 439.3312312 775.7118988 445.83627319 C774.08677722 447.60722466 772.51784117 449.42128669 770.94676208 451.24032593 C767.3001125 455.42567949 763.47127968 459.39637086 759.54441833 463.31845093 C758.49290588 464.36875488 758.49290588 464.36875488 757.42015076 465.4402771 C752.79766569 470.00871041 748.08835815 474.24585202 742.97410583 478.25985718 C740.52995946 480.19450948 738.17212919 482.20468094 735.82249451 484.25228882 C709.01928224 507.48448217 677.23757628 525.48196978 644.35716248 538.53573608 C642.11062039 539.45626262 639.90130233 540.44369358 637.68894958 541.44345093 C619.83506217 549.43858737 600.08579885 553.79695309 580.98191833 557.56845093 C579.79920349 557.80620239 578.61648865 558.04395386 577.39793396 558.28890991 C573.37384733 559.05700288 569.33785281 559.72522385 565.29441833 560.38095093 C564.54222141 560.50849227 563.79002449 560.63603361 563.01503372 560.76743984 C541.21539413 564.33760196 519.23344815 563.82799911 497.21598697 563.8211987 C491.60961451 563.82316655 486.00330962 563.84360706 480.39697266 563.86238098 C467.37817798 563.90306206 454.359397 563.92187336 441.34055328 563.93855286 C424.79676184 563.96100807 408.25300972 563.99505205 391.70928055 564.04575199 C386.16084458 564.06218489 380.61247027 564.07434785 375.06400871 564.07599068 C329.66782295 564.05499689 329.66782295 564.05499689 284.54441833 568.63095093 C283.83546417 568.73633179 283.12651001 568.84171265 282.39607239 568.95028687 C262.34014194 571.93387316 242.52434916 575.87364245 223.29441833 582.38095093 C221.20475871 583.03191035 219.11093078 583.6680971 217.0165863 584.30380249 C210.30017882 586.35234587 203.73834186 588.58198414 197.29441833 591.38095093 C196.34792419 591.78869751 196.34792419 591.78869751 195.38230896 592.2046814 C184.50097754 596.90615327 173.80399375 601.89813728 163.29441833 607.38095093 C162.63103455 607.72255249 161.96765076 608.06415405 161.28416443 608.41610718 C135.72131116 621.67771662 111.15436768 638.93045707 89.38816833 657.74032593 C84.43608291 662.00391988 79.27304806 666.00156865 74.09812927 669.98934937 C72.91374755 670.9031252 71.73201081 671.82034166 70.5532074 672.74130249 C52.23789366 687.03194606 32.59354198 700.0859005 12.29441833 711.38095093 C11.68308044 711.72770874 11.07174255 712.07446655 10.44187927 712.43173218 C0.74819575 717.91814129 -9.27139906 722.31631378 -19.58448792 726.50546265 C-21.40832475 727.25825718 -23.21513779 728.05206255 -25.01808167 728.85360718 C-37.49260881 734.39595823 -54.7155133 740.25301399 -68.31105042 735.46298218 C-73.70808487 732.3341198 -78.47377095 727.24068302 -80.70558167 721.38095093 C-80.92939707 718.60505851 -81.0377858 715.96791025 -81.01808167 713.19345093 C-81.01461731 712.38955933 -81.01115295 711.58566772 -81.00758362 710.75741577 C-80.90195226 704.8058768 -80.1273444 699.28018614 -78.99073792 693.43783569 C-72.29300131 658.34905088 -67.26807957 610.66938648 -88.45558167 579.44345093 C-101.04272794 563.40614168 -117.0275099 559.79979873 -136.15089417 556.52938843 C-151.72597304 553.86178444 -167.18394611 549.62750813 -181.70558167 543.38095093 C-183.61691661 542.70950787 -185.52859937 542.03872028 -187.44850159 541.3921814 C-228.7064295 527.46270284 -267.59618662 502.71722968 -299.56886292 473.33407593 C-301.47470514 471.5919898 -303.42061468 469.92140279 -305.39308167 468.25595093 C-314.80221744 460.05656118 -323.7109472 450.95994348 -331.70558167 441.38095093 C-332.91021057 439.99263062 -332.91021057 439.99263062 -334.13917542 438.57626343 C-364.13000925 403.91139257 -386.17898848 363.98827955 -402.70558167 321.38095093 C-402.98216614 320.67059692 -403.25875061 319.96024292 -403.54371643 319.22836304 C-411.40515606 298.67957169 -417.00633939 277.36604973 -421.23194885 255.79623413 C-421.54325477 254.20873441 -421.86141632 252.62256089 -422.18702698 251.03793335 C-426.75734243 228.76110786 -428.94509092 206.22973297 -429.08058167 183.50595093 C-429.09443909 182.22341431 -429.10829651 180.94087769 -429.12257385 179.61947632 C-429.08196654 171.59151715 -428.60238563 164.61474134 -423.97901917 157.85751343 C-423.0392926 156.94098999 -423.0392926 156.94098999 -422.08058167 156.00595093 C-421.46956604 155.37946655 -420.85855042 154.75298218 -420.22901917 154.10751343 C-414.00753853 149.85071089 -407.16235512 148.93723472 -399.78546143 149.00914001 C-398.93433692 149.00531545 -398.08321242 149.00149089 -397.20629627 148.99755043 C-394.37865698 148.98832864 -391.55151556 149.0002172 -388.72389221 149.01205444 C-386.68607379 149.00958417 -384.64825664 149.00574347 -382.61044312 149.00064087 C-378.23164314 148.99232057 -373.85297331 148.99309586 -369.47417259 149.00082588 C-362.53267837 149.01245116 -355.5913499 149.0002085 -348.64987183 148.98420715 C-331.4006907 148.94807582 -314.15151353 148.94177339 -296.90229797 148.94430542 C-283.50755363 148.94602218 -270.11294564 148.93872209 -256.71823913 148.90432686 C-249.83684406 148.88764885 -242.95578296 148.88922815 -236.07438982 148.90514958 C-231.76533204 148.91100145 -227.45642799 148.90010808 -223.14739799 148.88490295 C-221.17073383 148.88121817 -219.19404253 148.88416234 -217.21740341 148.89477348 C-193.83927047 149.01176125 -172.41682291 144.41562864 -151.70558167 133.38095093 C-150.3017926 132.67132202 -150.3017926 132.67132202 -148.86964417 131.94735718 C-119.37151925 116.67926613 -96.16214417 89.35862587 -85.70558167 57.81845093 C-81.1245589 44.12490721 -73.95221128 33.49489037 -63.70558167 23.38095093 C-62.96437073 22.64102905 -62.22315979 21.90110718 -61.45948792 21.13876343 C-52.95733295 13.12021728 -42.77764464 7.07300806 -31.70558167 3.38095093 C-30.90882855 3.11442573 -30.11207543 2.84790053 -29.29117829 2.57329881 C-19.57188863 -0.25206893 -10.02505373 -0.03795708 0 0 Z " fill="#FEFEFE" transform="translate(776.7055816650391,880.6190490722656)"/>
<path d="M0 0 C0.85888321 -0.00418945 1.71776642 -0.00837891 2.60267639 -0.01269531 C5.35495703 -0.02238956 8.10708026 -0.02249854 10.859375 -0.01953125 C11.80034027 -0.01925934 12.74130554 -0.01898743 13.71078491 -0.01870728 C27.44626396 -0.0004134 40.97885857 0.35111963 54.609375 2.16796875 C56.41275628 2.38805474 58.21614183 2.60810573 60.01953125 2.828125 C70.78810126 4.20008224 81.15402185 6.21988723 91.609375 9.16796875 C92.48932129 9.4103125 93.36926758 9.65265625 94.27587891 9.90234375 C143.94959488 23.62631607 188.95855792 46.35429368 228.53466797 79.45800781 C230.00757694 80.67197045 231.4982002 81.86458119 233.00048828 83.04199219 C240.7826956 89.20500527 247.77197725 96.02458461 254.76220703 103.06005859 C256.7312065 105.03978299 258.71068227 107.00857629 260.69140625 108.9765625 C267.79046123 116.0677758 274.42848572 123.25269639 280.609375 131.16796875 C281.63349407 132.42321076 282.66049133 133.67611457 283.69140625 134.92578125 C309.20066321 166.25229856 332.9121338 203.6437269 345.59765625 242.171875 C346.66411044 245.33006175 347.91780358 248.35626453 349.234375 251.41796875 C350.03178402 253.33225349 350.82387821 255.24876526 351.609375 257.16796875 C351.93292969 257.95042969 352.25648437 258.73289062 352.58984375 259.5390625 C354.53935389 264.96657195 354.94122103 270.19982933 355.046875 275.91796875 C355.06919189 276.63944092 355.09150879 277.36091309 355.11450195 278.10424805 C355.09232633 283.28555146 353.96222878 286.24770894 350.609375 290.16796875 C346.34441979 293.66446356 341.60349973 294.05692425 336.296875 294.73046875 C335.36665527 294.85486328 334.43643555 294.97925781 333.47802734 295.10742188 C321.06812108 296.70549488 308.59918591 297.58494957 296.12402344 298.49560547 C291.11881152 298.86118219 286.11392861 299.23098562 281.109375 299.60546875 C280.25853333 299.66911621 279.40769165 299.73276367 278.53106689 299.79833984 C267.75797599 300.61165456 257.04912258 301.59361116 246.33984375 303.04272461 C237.6146841 304.21497726 228.86447965 305.04104465 220.09991455 305.85446167 C211.53469274 306.65242717 203.0103185 307.59006971 194.484375 308.73046875 C159.2861844 313.34431799 125.54036034 317.42011123 95.296875 295.91796875 C82.435055 285.70879006 74.4630588 273.70152206 67.71826172 258.89038086 C53.98231797 228.73606465 28.73438931 202.53837434 -2.52685547 190.33398438 C-4.72198835 189.55812272 -6.92532858 188.82168159 -9.140625 188.10546875 C-9.9255835 187.84870361 -10.71054199 187.59193848 -11.51928711 187.32739258 C-25.1494802 182.93015069 -37.58318761 180.9701325 -51.890625 180.98046875 C-53.06898926 180.98127441 -54.24735352 180.98208008 -55.46142578 180.98291016 C-66.49737227 181.0580849 -77.41831117 181.82897707 -88.39941406 182.88134766 C-91.41371199 183.17018097 -94.42916085 183.44221513 -97.4453125 183.7109375 C-99.34382954 183.88324042 -101.24227106 184.05637808 -103.140625 184.23046875 C-104.00413574 184.30958496 -104.86764648 184.38870117 -105.75732422 184.47021484 C-106.55928223 184.5470752 -107.36124023 184.62393555 -108.1875 184.703125 C-109.22922363 184.80185913 -109.22922363 184.80185913 -110.29199219 184.90258789 C-112.43089056 185.14303108 -112.43089056 185.14303108 -114.66796875 185.65429688 C-118.14704128 186.31067856 -121.63117512 186.58189683 -125.15625 186.8515625 C-125.90791443 186.91199234 -126.65957886 186.97242218 -127.434021 187.03468323 C-130.62298413 187.29101201 -133.81245982 187.54065061 -137.00195312 187.7902832 C-146.15274198 188.51055484 -155.26352248 189.35009593 -164.37467957 190.46826172 C-170.7240508 191.23624844 -177.07233529 191.69898375 -183.453125 192.10546875 C-191.89589176 192.68410257 -200.25637782 193.46079397 -208.640625 194.60546875 C-219.1578271 196.02274388 -229.68649456 196.88553219 -240.265625 197.66796875 C-241.10322357 197.73008545 -241.94082214 197.79220215 -242.80380249 197.85620117 C-246.19811493 198.10774924 -249.59244011 198.35912433 -252.98680115 198.61001587 C-274.84547808 200.23537446 -296.64926301 202.35970389 -318.44311523 204.68725586 C-353.58826812 208.44069521 -388.8173217 211.90268086 -424.06982422 214.48461914 C-429.47981463 214.89122525 -434.86876063 215.42815058 -440.26171875 216.015625 C-448.96357783 216.9582418 -457.67780336 217.74176218 -466.39642525 218.50931549 C-471.23482759 218.93702464 -476.07236522 219.37444458 -480.9099741 219.81102371 C-485.06757941 220.18537953 -489.22555684 220.55378062 -493.38476562 220.90991211 C-519.26889913 222.94317618 -519.26889913 222.94317618 -544.390625 229.16796875 C-545.36837891 229.49901611 -546.34613281 229.83006348 -547.35351562 230.17114258 C-549.65983577 231.0114488 -551.89698706 231.92400511 -554.140625 232.91796875 C-554.91809082 233.25521973 -555.69555664 233.5924707 -556.49658203 233.93994141 C-575.74369489 242.52178281 -594.12035829 255.73811473 -607.390625 272.16796875 C-608.08929687 273.0290625 -608.78796875 273.89015625 -609.5078125 274.77734375 C-621.88009019 290.61728405 -630.54016062 308.68051479 -635.390625 328.16796875 C-639.56045962 343.52749719 -646.17129628 355.15647404 -656.390625 367.16796875 C-656.97585938 367.86921875 -657.56109375 368.57046875 -658.1640625 369.29296875 C-679.23800872 392.39942755 -712.46196806 394.38740251 -741.43652344 396.41625977 C-747.82086651 396.87119575 -754.16685362 397.41819612 -760.515625 398.23046875 C-766.96380895 399.05172999 -773.37175525 399.53795254 -779.86181641 399.82641602 C-783.53653512 399.96677741 -783.53653512 399.96677741 -787.13696289 400.64282227 C-790.37862753 401.39819229 -793.64983311 401.57757985 -796.9609375 401.81640625 C-798.49976856 401.9341603 -800.03858639 402.05208731 -801.57739258 402.17016602 C-802.38302643 402.23084259 -803.18866028 402.29151917 -804.01870728 402.35403442 C-816.10711133 403.26872795 -828.16663256 404.26687472 -840.203125 405.73046875 C-856.27514659 407.6643891 -872.31506861 409.30296182 -888.515625 409.48046875 C-889.4221582 409.49811279 -890.32869141 409.51575684 -891.26269531 409.53393555 C-896.42128278 409.52855182 -899.9169565 409.00395503 -904.390625 406.16796875 C-905.43863281 405.50474609 -905.43863281 405.50474609 -906.5078125 404.828125 C-910.22685704 401.44792674 -911.55281204 398.46978205 -911.90234375 393.51171875 C-912.09021619 385.9509126 -911.71711866 378.76887735 -909.92797852 371.40795898 C-909.37870542 369.11828129 -908.92646994 366.82652267 -908.49609375 364.51171875 C-906.55240248 354.20138254 -904.13649607 344.22313198 -901.01416016 334.20947266 C-900.40563351 332.21710782 -899.83486565 330.21811563 -899.27734375 328.2109375 C-884.55256253 275.46535655 -858.13453723 225.45778504 -823.390625 183.16796875 C-822.9668457 182.64122559 -822.54306641 182.11448242 -822.10644531 181.57177734 C-814.13662005 171.70964173 -805.20137552 162.76875204 -796.265625 153.79296875 C-795.66493195 153.18700867 -795.06423889 152.58104858 -794.44534302 151.95672607 C-787.08165312 144.54321792 -779.60326947 137.64224465 -771.390625 131.16796875 C-770.25102963 130.21591717 -769.1149818 129.25958372 -767.984375 128.296875 C-750.82190223 113.94200534 -731.34981981 101.25337105 -711.390625 91.16796875 C-710.42914551 90.68102539 -709.46766602 90.19408203 -708.47705078 89.69238281 C-696.34277121 83.59981021 -684.28864251 78.02256262 -671.35888672 73.85327148 C-669.09454477 73.06488053 -666.89779776 72.15404987 -664.68359375 71.234375 C-658.95343842 68.91312017 -653.0984619 67.23629845 -647.140625 65.60546875 C-646.03887939 65.3010083 -644.93713379 64.99654785 -643.80200195 64.68286133 C-628.49954561 60.50126473 -613.09231383 57.58717119 -597.328125 55.79296875 C-596.25232178 55.66994385 -595.17651855 55.54691895 -594.06811523 55.42016602 C-571.02083515 52.85198182 -547.900834 50.69725391 -524.765625 49.10546875 C-515.77815215 48.48543274 -506.87858827 47.55423458 -497.94287109 46.41821289 C-487.11331406 45.07271229 -476.25552895 44.05590483 -465.390625 43.04296875 C-464.47659912 42.95670227 -463.56257324 42.87043579 -462.62084961 42.78155518 C-445.90990146 41.20875564 -445.90990146 41.20875564 -438.05712891 40.80255127 C-431.66847978 40.45850376 -425.34606074 39.99403714 -418.9921875 39.25341797 C-417.39987537 39.07234606 -415.80750717 38.89176662 -414.21508789 38.7116394 C-413.41160919 38.62052761 -412.60813049 38.52941582 -411.78030396 38.43554306 C-405.00933648 37.67739229 -398.2307674 36.98839744 -391.453125 36.29296875 C-390.62969604 36.20837402 -389.80626709 36.1237793 -388.95788574 36.03662109 C-367.54030537 33.84182556 -346.10133858 31.88202947 -324.66162109 29.91796875 C-319.22077248 29.41936225 -313.78004773 28.91944275 -308.33953857 28.41714478 C-306.54533282 28.25149551 -304.75110277 28.08610908 -302.95684814 27.92098999 C-293.21779281 27.02317882 -283.48419549 26.08920298 -273.7578125 25.0625 C-272.8978857 24.97175296 -272.03795891 24.88100592 -271.15197372 24.78750896 C-269.44477265 24.60713462 -267.7375773 24.42670615 -266.03038788 24.24622154 C-264.78558025 24.11467391 -264.78558025 24.11467391 -263.515625 23.98046875 C-262.69370918 23.89357096 -261.87179337 23.80667316 -261.02497101 23.71714211 C-251.21292808 22.68602785 -241.45401332 21.840976 -231.58953857 21.50346375 C-222.01257352 21.14794566 -212.52492311 19.97526851 -203.01052856 18.87045288 C-180.89667421 16.31131369 -158.75892311 14.08760508 -136.59190369 12.05208969 C-134.47407315 11.85739454 -132.35634963 11.66157058 -130.23864746 11.46548462 C-117.35214342 10.27400038 -104.47621499 9.10776919 -91.55444336 8.37670898 C-86.88692432 8.06875862 -82.27485389 7.47763155 -77.640625 6.85546875 C-60.67562028 4.69521331 -43.62750394 3.3061472 -26.59346008 1.8144989 C-25.39296272 1.70885368 -25.39296272 1.70885368 -24.16821289 1.60107422 C-23.38147186 1.53187271 -22.59473083 1.4626712 -21.78414917 1.39137268 C-19.30964783 1.1604106 -16.84064866 0.89191277 -14.36987305 0.62426758 C-9.57111028 0.14110789 -4.82058804 0.00730683 0 0 Z " fill="#FEFEFE" transform="translate(1258.390625,475.83203125)"/>
</svg>
