<svg xmlns="http://www.w3.org/2000/svg" width="1200" height="630" viewBox="0 0 1200 630">
  <defs>
    <filter id="grain" x="0" y="0" width="100%" height="100%">
      <feTurbulence type="fractalNoise" baseFrequency="0.85" numOctaves="2" stitchTiles="stitch"/>
      <feColorMatrix values="0 0 0 0 0  0 0 0 0 0  0 0 0 0 0  0 0 0 0.05 0"/>
    </filter>
  </defs>

  <!-- Warm off-white background -->
  <rect width="1200" height="630" fill="#fdfcf8"/>

  <!-- Subtle paper grain -->
  <rect width="1200" height="630" filter="url(#grain)" opacity="0.7"/>

  <!-- Site URL top-left, small caps muted -->
  <text x="90" y="98" font-family="-apple-system, BlinkMacSystemFont, 'Segoe UI', sans-serif"
        font-size="18" font-weight="600" fill="#6b6a66" letter-spacing="3.6">
    RECKZIEGEL.ME
  </text>

  <!-- Big serif name -->
  <text x="90" y="300" font-family="'Iowan Old Style', 'Apple Garamond', Georgia, serif"
        font-size="104" font-weight="500" fill="#181614" letter-spacing="-3">
    Kurt Reckziegel
  </text>

  <!-- ============================================================
       Tagline + hand-drawn scribbles. The scribbles use the SAME
       path data, viewBoxes, and preserveAspectRatio as the live site
       (src/pages/index.astro). Only the positioning is OG-specific.
       ============================================================ -->

  <!-- Line 1: Curious about people. -->
  <text x="90" y="395" font-family="'Iowan Old Style', Georgia, serif"
        font-size="42" font-style="italic" fill="#181614" letter-spacing="-0.4">
    Curious about people.
  </text>

  <!-- Question mark above-right of "Curious".
       Box ~32×38 (= 0.75em × 0.9em at 42px font), rotated 22°. -->
  <g transform="rotate(22 215 348)">
    <svg x="199" y="329" width="32" height="38" viewBox="0 0 16 22" overflow="visible">
      <path d="M 3 6 Q 3 1 8 1 Q 14 1.5 12 7 Q 9 9 8.5 13"
            fill="none" stroke="#e91d63" stroke-width="2.2"
            stroke-linecap="round" stroke-linejoin="round"/>
      <circle cx="8.5" cy="18" r="1.3" fill="#e91d63"/>
    </svg>
  </g>

  <!-- Line 2: Obsessed with brands. -->
  <text x="90" y="455" font-family="'Iowan Old Style', Georgia, serif"
        font-size="42" font-style="italic" fill="#181614" letter-spacing="-0.4">
    Obsessed with brands.
  </text>

  <!-- Double-circle around "brands". Uses the site's exact path data,
       viewBox, and rotated-second-pass technique. Sized to wrap "brands",
       with the same proportional inset as the site CSS. -->
  <g transform="rotate(-1.5 425 441)">
    <svg x="355" y="412" width="140" height="58" viewBox="0 0 200 100" preserveAspectRatio="none" overflow="visible">
      <path d="M 100 4 Q 172 4 198 18 Q 212 34 212 50 Q 212 66 198 82 Q 172 96 100 96 Q 28 96 2 82 Q -12 66 -12 50 Q -12 34 2 18 Q 28 4 100 4 Z"
            fill="none" stroke="#e91d63" stroke-width="3"
            stroke-linecap="round" stroke-linejoin="round"/>
      <path d="M 100 4 Q 172 4 198 18 Q 212 34 212 50 Q 212 66 198 82 Q 172 96 100 96 Q 28 96 2 82 Q -12 66 -12 50 Q -12 34 2 18 Q 28 4 100 4 Z"
            fill="none" stroke="#e91d63" stroke-width="2.4" opacity="0.85"
            stroke-linecap="round" stroke-linejoin="round"
            transform="rotate(-6 100 50)"/>
    </svg>
  </g>

  <!-- Line 3: Grounded in strategy. -->
  <text x="90" y="515" font-family="'Iowan Old Style', Georgia, serif"
        font-size="42" font-style="italic" fill="#181614" letter-spacing="-0.4">
    Grounded in strategy.
  </text>

  <!-- Double wavy underline beneath "Grounded in strategy."
       Uses the site's EXACT path data — two wavy lines with offset
       Y variations that read as hand-drawn marker. -->
  <svg x="90" y="525" width="380" height="23" viewBox="0 0 200 14" preserveAspectRatio="none" overflow="visible">
    <path d="M 2 4 Q 30 0, 60 4 T 120 5 T 180 4 T 198 5"
          fill="none" stroke="#e91d63" stroke-width="2.2" stroke-linecap="round"/>
    <path d="M 4 11 Q 32 7, 64 11 T 124 10 T 184 11 T 196 10"
          fill="none" stroke="#e91d63" stroke-width="1.7" opacity="0.85"
          stroke-linecap="round"/>
  </svg>
</svg>

